<?xml version="1.0" encoding="UTF-8"?>
<svg version="1.1" viewBox="0 0 1600 1600" width="1280" height="1280" xmlns="http://www.w3.org/2000/svg">
<path transform="translate(572 -.253)" d="m0 0c1.29-0.01 2.59-0.01 3.92-0.02 1.42 0.01 2.85 0.01 4.27 0.02 1.53-0.01 3.06-0.01 4.59-0.01 4.2-0.01 8.41-0.01 12.6-0.01 4.58 0.01 9.15 0 13.7-0.01 8.03-0.01 16-0.01 24.1-0.01 11.9 0 23.8 0 35.8-0.01 22.5-0.02 45.1-0.03 67.6-0.03 17.4 0 34.8-0.01 52.2-0.01 5.01 0 10-0.01 15-0.01h3.77c35-0.01 70-0.02 105-0.02h4 18.1 8.06 4.04c42.5 0 85-0.01 128-0.04 47-0.03 94-0.05 141-0.04h15 3.74c19.9 0 39.7-0.02 59.6-0.03 20-0.02 39.9-0.02 59.9-0.01 11.9 0.01 23.7 0 35.6-0.02 7.92-0.01 15.8-0.01 23.8 0.01 4.52 0.01 9.03 0.01 13.5-0.01 4.11-0.01 8.22-0.01 12.3 0.01 1.48 0 2.95 0 4.43-0.01 17.8-0.12 34.2 6.17 47.2 18.5 18.5 19.2 18.2 41.9 18.1 66.9 0 2.35 0.01 4.69 0.01 7.04 0 5.75 0.01 11.5 0 17.3 0 6.9 0.01 13.8 0.01 20.7 0.01 14.3 0.01 28.6 0.02 42.9v33.1 9.55 2.4c0.01 22.2 0.01 44.5 0.01 66.8v2.54 12.8 2.56 5.12c0 26.5 0.01 53.1 0.02 79.6 0.02 29.8 0.03 59.7 0.03 89.5v9.56 2.37c0 12.6 0 25.2 0.01 37.8 0.01 12.7 0.01 25.3 0 38 0 6.86 0 13.7 0.01 20.6 0.01 6.29 0.01 12.6 0 18.9v6.8c0.06 23.9-1 45.2-17.2 64.2-7.11 6.83-14.8 11.6-24 15-0.71 0.27-1.42 0.53-2.15 0.81-9.45 3.08-19.2 2.76-29 2.88-1.79 0.03-3.58 0.07-5.37 0.1-5.15 0.1-10.3 0.16-15.4 0.21-0.77 0.01-1.53 0.02-2.32 0.03-2.14 0.03-4.28 0.04-6.42 0.06-1.19 0-2.39 0.01-3.61 0.02-4.23-0.12-8.45-0.64-12.6-1.11v85c13.5 0.02 27 0.03 41 0.05 8.57 0.02 17.1 0.04 25.7 0.06 13.6 0.05 27.2 0.08 40.8 0.09 9.91 0 19.8 0.02 29.7 0.06 5.24 0.02 10.5 0.04 15.7 0.03 4.94-0.01 9.88 0.01 14.8 0.04 1.81 0.01 3.61 0.01 5.42 0 18.4-0.09 18.4-0.09 25.8 5.67 5.96 6.27 8.25 12.3 8.25 21 0.01 0.68 0.01 1.37 0.01 2.08 0.01 2.29 0.01 4.59 0 6.89 0 1.67 0.01 3.33 0.01 5 0.01 4.57 0.01 9.15 0 13.7 0 4.94 0.01 9.87 0.02 14.8 0.01 9.66 0.01 19.3 0.01 29 0 7.86 0 15.7 0.01 23.6v3.39 6.81c0.01 21.3 0.01 42.6 0 63.9 0 19.5 0.01 39 0.03 58.5 0.02 20 0.03 40 0.02 60 0 11.2 0 22.5 0.02 33.7 0.01 9.56 0.01 19.1 0 28.7-0.01 4.88-0.01 9.76 0 14.6 0.01 4.47 0.01 8.94 0 13.4-0.01 1.61 0 3.23 0 4.84 0.09 17.7 0.09 17.7-4.89 25.3-5.55 5.39-11.2 7.69-18.9 8.13-5.83-0.23-11.7-2.01-16.2-5.83-5.63-6.43-6.84-12.4-7.04-20.6-0.04-0.97-0.07-1.94-0.1-2.94-0.32-10.1-0.36-20.2-0.34-30.3 0.01-2.03 0.01-4.05 0-6.07 0-5.42 0.01-10.8 0.02-16.2 0-5.69 0-11.4 0.01-17.1 0-10.7 0.01-21.5 0.02-32.2 0.01-14.5 0.02-29.1 0.02-43.6 0.01-22.8 0.03-45.7 0.05-68.5l-159 1c0.04 31.1 0.04 31.1 0.09 62.2 0.05 43.3 0.05 43.3-1.09 61.8-0.05 0.77-0.09 1.54-0.14 2.33-0.3 4.59-0.67 9.16-1.11 13.7-0.09 0.98-0.09 0.98-0.19 1.99-1.27 13.2-3.5 26.1-6.56 38.9-0.19 0.83-0.39 1.67-0.59 2.52-7.52 31.7-25.1 61.9-53.2 79.3-30.9 18.4-65.9 23.3-101 23.4-1.72 0.01-3.43 0.02-5.15 0.03-4.55 0.03-9.1 0.05-13.6 0.07-4.28 0.02-8.57 0.04-12.8 0.07-12.5 0.06-25 0.12-37.5 0.19-28 0.14-55.9 0.28-84.7 0.43l-1 286c21.8-0.03 43.7-0.07 66.2-0.1 13.8-0.02 27.6-0.03 41.4-0.04 7.26-0.01 14.5-0.02 21.8-0.02h2.75c14.7-0.02 29.4-0.04 44-0.07 15.1-0.03 30.1-0.04 45.2-0.05 9.29 0 18.6-0.02 27.9-0.04 6.37-0.02 12.8-0.02 19.1-0.02 3.68 0 7.36 0 11-0.01 3.99-0.02 7.98-0.02 12-0.01 1.15-0.01 2.31-0.02 3.5-0.02 7.77 0.04 14.7 0.65 20.9 5.63 5.33 6.71 7.64 12.1 7.19 20.8-1.37 7.12-4.13 12-9.61 16.7-7.31 4.1-15.4 3.62-23.5 3.58-1.32 0.01-2.64 0.01-3.99 0.01-3.64 0-7.29 0-10.9-0.01-3.93-0.01-7.86-0.01-11.8-0.01-6.81 0-13.6 0-20.4-0.02-9.84-0.01-19.7-0.02-29.5-0.02-16 0-32-0.02-47.9-0.04-15.5-0.01-31-0.03-46.5-0.04h-2.9c-4.8 0-9.6 0-14.4-0.01-39.8-0.02-79.6-0.05-119-0.1v2h-10v-2c-1.02 0-1.02 0-2.05 0.01-40.1 0.06-80.1 0.12-120 0.15-4.81 0-9.62 0-14.4 0.01h-2.91c-15.5 0.01-31 0.04-46.5 0.06-15.9 0.03-31.8 0.05-47.7 0.06-9.81 0-19.6 0.01-29.4 0.04-6.74 0.01-13.5 0.02-20.2 0.01-3.88 0-7.77 0-11.6 0.02-4.22 0.02-8.43 0.01-12.6 0-1.23 0.01-2.45 0.02-3.71 0.03-8.27-0.04-14.8-1.01-21.9-5.51-4.97-5.32-6.91-10.6-7.25-17.8 0.28-7.12 2.37-13 7.53-18 5.06-3.98 8.85-5.21 15.3-5.21 1.07 0 2.14 0 3.25-0.01 1.17 0.01 2.35 0.01 3.56 0.01h3.78c3.47 0 6.94 0 10.4 0.01h11.2c6.48 0 13 0 19.4 0.01 9.36 0.01 18.7 0.01 28.1 0.01 15.2 0 30.4 0.01 45.6 0.02 14.8 0.01 29.5 0.01 44.3 0.02h2.78 21.6c35.2 0.01 70.5 0.03 106 0.05v-198h-98c-8.18-4.08-12.6-6.83-15.9-15.2-1.72-6.06-1.56-12.2 0.92-18 3.08-5.29 6.91-9.36 12.6-11.8 4.4-1.13 8.47-1.14 13-1.1h2.87c3.12 0 6.24 0.01 9.35 0.03 2.17 0 4.34 0 6.5 0.01 5.69 0 11.4 0.02 17.1 0.05 6.83 0.02 13.7 0.03 20.5 0.04 10.4 0.02 20.8 0.06 31.1 0.09v-43c-3.84 0.01-7.67 0.03-11.6 0.04-35.2 0.1-70.4 0.17-106 0.22-4.62 0-9.23 0.01-13.8 0.02h-2.79c-14.9 0.02-29.7 0.06-44.6 0.11-15.2 0.05-30.5 0.07-45.8 0.08-9.41 0.01-18.8 0.03-28.2 0.07-6.45 0.03-12.9 0.04-19.4 0.03-3.72 0-7.44 0-11.2 0.03-4.04 0.03-8.08 0.02-12.1 0-1.17 0.02-2.33 0.03-3.54 0.05-7.49-0.07-13.1-1.45-19.4-5.65-2.44-2.5-2.44-2.5-4-5-0.84-1.23-0.84-1.23-1.69-2.5-9.47-18-0.93-51.3 4.42-69.8 7.98-25.4 20.2-48 38.3-67.5 1.6-1.75 3.09-3.51 4.55-5.36 3.18-3.67 6.72-6.7 10.4-9.82 0.8-0.69 1.6-1.38 2.43-2.09 47.7-40.2 111-52 172-53.5 0.86-0.03 1.73-0.05 2.62-0.07 18.7-0.45 37.4-0.5 56-0.46 4.67 0 9.35 0.01 14 0.01l24.2 0.03c11.6 0.02 23.3 0.02 34.9 0.03 18.9 0.01 37.8 0.03 56.7 0.05h3.41c12.6 0.01 25.2 0.03 37.8 0.04 1.14 0 2.27 0 3.45 0.01h6.89c1.7 0.01 1.7 0.01 3.44 0.01h3.44c18.9 0.03 37.8 0.04 56.7 0.05 11.6 0.01 23.2 0.02 34.9 0.04 7.93 0.01 15.9 0.02 23.8 0.02 4.58 0 9.16 0.01 13.7 0.02 4.18 0.01 8.37 0.01 12.6 0.01 1.52 0 3.04 0 4.56 0.01 2.05 0.01 4.11 0 6.16 0h3.47c3.22-0.09 3.22-0.09 6.91-2.25l-1-63h-827c-0.21 197-0.21 197-0.39 394-0.05 38-0.05 38-0.08 55.8-0.02 13.3-0.02 26.6-0.03 39.9 0 13.6-0.02 27.1-0.05 40.7-0.01 8.06-0.02 16.1-0.02 24.2 0.01 5.95-0.01 11.9-0.02 17.8-0.01 2.41-0.01 4.82 0 7.23 0 3.27-0.01 6.54-0.03 9.82 0.01 1.41 0.01 1.41 0.02 2.85-0.07 7.53-1.49 14.4-6.77 20.2-5.43 4.4-12.2 6.03-19.1 5.71-5.85-0.89-11.5-2.72-15.5-7.26-22.8-34.6-5.7-82.7-6.06-124h-422l-1 114c-3.27 7.64-5.2 12-12.7 15.4-8.12 2.86-15.2 2.44-23-1.04-5.31-3.14-8.3-7.57-10.3-13.3-0.26-3.01-0.26-3.01-0.28-6.43-0.01-1.31-0.02-2.62-0.03-3.96 0-1.46-0.01-2.91-0.01-4.36l-0.03-4.62c-0.03-4.25-0.04-8.49-0.05-12.7-0.02-4.57-0.04-9.14-0.07-13.7-0.05-8.98-0.08-18-0.11-26.9-0.03-7.38-0.06-14.8-0.09-22.2-0.42-92.6-0.49-185-0.46-278 0-7.36 0.01-14.7 0.01-22.1 0.01-50.1 0.04-100 0.09-150 0-2.87 0-5.74 0.01-8.61v-5.65c0.01-12.9 0.02-25.7 0.03-38.6 0.02-29.2 0.04-58.3 0.12-87.5 0.01-2.23 0.02-4.47 0.02-6.7 0.01-1.08 0.01-2.17 0.01-3.29 0.02-7.48 0.03-15 0.03-22.5 0.01-8.76 0.03-17.5 0.07-26.3 0.02-4.28 0.03-8.56 0.02-12.8 0-3.8 0.01-7.6 0.05-11.4 0.01-1.98 0-3.96-0.02-5.95 0.11-8.26 1.46-15.3 7.13-21.6 6.27-5.56 11.9-6.83 20-6.73h2.81c3.05 0 6.1 0.03 9.16 0.05 2.12 0.01 4.24 0.01 6.36 0.01 5.57 0.01 11.2 0.04 16.7 0.08 5.69 0.03 11.4 0.04 17.1 0.06 11.2 0.03 22.3 0.08 33.5 0.14-1.92-3.27-3.79-5.97-6.44-8.68-42.2-46.8-47.5-117-47.9-177-0.02-1.83-0.05-3.67-0.08-5.5-0.42-20.3-0.42-20.3 5.43-27.6 2.39-2.25 2.39-2.25 4.69-3.56 0.76-0.45 1.53-0.91 2.32-1.38 4.38-2.33 8.15-2.23 13-2.26 0.94-0.01 1.89-0.02 2.86-0.03 3.14-0.03 6.29-0.06 9.43-0.08 2.22-0.02 4.43-0.05 6.64-0.07 4.68-0.04 9.35-0.08 14-0.12 5.87-0.05 11.7-0.1 17.6-0.16 27.5-0.26 54.9-0.38 82.4-0.34v-44c-4.29 0.66-8.58 1.32-13 2-2.93 0.2-5.71 0.34-8.63 0.32-0.74-0.01-1.49-0.01-2.26-0.02-33-0.64-68.5-14.8-92.1-38.1-1.01-1.06-2.01-2.12-3-3.19-1.18-1.14-1.18-1.14-2.38-2.31-0.86-0.89-1.73-1.77-2.62-2.69-0.66-0.67-1.32-1.34-1.99-2.04-20.5-21.8-29.7-48.7-29.2-78.2 0.31-9.49 1.41-17.1 8.31-24 0.64-0.57 1.27-1.15 1.93-1.74 0.56-0.53 1.13-1.06 1.71-1.61 19.3-16.3 51.8-16.9 75.6-15.1 9.29 1.05 18 3.56 26.7 6.72 0.68 0.25 1.36 0.49 2.07 0.74 14.2 5.17 27.4 12.5 38.9 22.3 3.26-25.4 3.26-25.4-3.21-48.8-3.22-3.22-6.88-5.65-10.8-7.95-19.5-12.4-29.2-43.1-34-64.3-0.24-1-0.47-2.01-0.72-3.05-7.26-34.9 2.19-69.2 21.2-98.6 3.84-5.72 8.14-11 12.6-16.3 0.5-0.66 1.01-1.33 1.53-2.02 7.35-9.52 18.6-17.4 30-20.7 14.9-1.52 26.4 4.78 37.9 13.9 9.68 8.22 18.9 17 25.6 27.9 0.65 1.06 1.31 2.12 1.98 3.21 7.94 13.1 12.9 26.8 16 41.8 0.23 1.07 0.45 2.14 0.69 3.25 6.21 35.3-2.3 72.6-22.4 102-2.51 3.45-5.32 6.58-8.27 9.65-2.07 2.11-2.07 2.11-3.92 4.59-2.32 2.8-4.82 4.94-7.65 7.21-0.95 0.77-1.9 1.53-2.88 2.32-2.56 1.99-2.56 1.99-5.56 3.99-0.48 1.89-0.48 1.89-0.43 4.09-0.03 1.26-0.03 1.26-0.06 2.54-0.01 0.91-0.02 1.82-0.02 2.76-0.02 0.93-0.04 1.85-0.06 2.81-0.05 2.98-0.09 5.95-0.12 8.93-0.03 2.01-0.07 4.03-0.1 6.04-0.09 4.94-0.15 9.89-0.21 14.8 1.7-1.08 3.4-2.16 5.11-3.25 1.01-0.64 2.01-1.28 3.05-1.94 2.08-1.32 4.16-2.66 6.23-3.99 11.3-7.14 22.5-12.4 35.2-16.1 0.84-0.24 1.67-0.48 2.53-0.73 11.6-3.21 23.1-4.33 35.2-4.27 1.27 0.01 2.55 0.01 3.86 0.02 20.8 0.26 41.7 5.33 57.9 19 6.71 6.98 7.49 16.7 7.34 25.9-0.01 0.96-0.02 1.92-0.03 2.91-0.69 32-15.7 61.4-38.3 83.5-25.9 24.4-59.1 37.9-94.6 38.2-1.25 0.02-1.25 0.02-2.53 0.03-7.25-0.04-13.5-1.14-20.8-2.28l1 44c5.93 0.02 5.93 0.02 12 0.03 13.1 0.04 26.2 0.09 39.2 0.16 7.92 0.04 15.8 0.07 23.8 0.08 6.91 0.02 13.8 0.04 20.7 0.09 3.66 0.02 7.32 0.04 11 0.03 4.09 0 8.17 0.03 12.3 0.07 1.21-0.01 2.41-0.01 3.66-0.02 7.96 0.1 13.4 1.16 19.6 6.49 0.54 0.64 1.08 1.29 1.63 1.95 0.56 0.63 1.11 1.27 1.68 1.93 3.15 4.78 3.7 9.47 3.71 15.1 0.01 0.99 0.01 0.99 0.01 2 0.01 2.16-0.01 4.32-0.02 6.48 0 0.75-0.01 1.5-0.01 2.27-0.3 61.2-5.87 136-50.4 183-1.17 1.15-2.36 2.27-3.57 3.38-1.54 1.45-1.54 1.45-2.28 4.36h531l-1-85c-8.25 0.01-16.5 0.01-25 0.02-26.6 0.02-53.2 0.03-79.7 0.03-4.15 0.01-8.3 0.01-12.4 0.01h-2.5c-13.3 0-26.5 0.01-39.8 0.02-13.7 0.01-27.3 0.02-41 0.02-7.65 0-15.3 0-23 0.01-18.9 0.02-37.7 0-56.6-0.11-1.17 0-2.33-0.01-3.53-0.02-6.46-0.03-12.9-0.09-19.4-0.19-1.89-0.03-3.77-0.05-5.65-0.06-19.3-0.16-35.5-4.7-49.6-18.6-10.9-11.4-17-25.9-17-41.7v-1.94c-0.01-2.15-0.01-4.3-0.01-6.46 0-1.55-0.01-3.11-0.01-4.67-0.01-4.28-0.01-8.56-0.02-12.8 0-4.62-0.01-9.24-0.02-13.9-0.02-11.1-0.03-22.3-0.04-33.4 0-5.25-0.01-10.5-0.01-15.8-0.02-17.4-0.03-34.9-0.04-52.4 0-4.53 0-9.05-0.01-13.6v-3.41c-0.01-18.2-0.03-36.5-0.06-54.7-0.04-18.7-0.06-37.4-0.06-56.2 0-10.5-0.01-21-0.04-31.5-0.02-8.95-0.02-17.9-0.02-26.8 0.01-4.56 0.01-9.13-0.01-13.7-0.02-4.18-0.02-8.36 0-12.5 0-1.51 0-3.02-0.02-4.53-0.06-8.95 0.09-16 6.29-23.1 0.57-0.45 1.13-0.89 1.72-1.35 0.57-0.46 1.13-0.92 1.72-1.4 6.41-4.42 13.3-3.85 20.8-3.23 5.5 1.41 9.07 4.65 12.8 8.83 42.8 75.8 3.88 174 4.23 261h636c1.32-4.62 2.36-8.65 3.08-13.3 0.18-1.2 0.37-2.39 0.57-3.63 0.2-1.27 0.39-2.54 0.6-3.85 11.7-73 39.2-143 89.8-198 0.9-1.01 1.81-2.01 2.71-3.02 5.14-5.72 10.4-11.1 16.3-16 1.32-1.13 1.32-1.13 2.67-2.29 38.6-32.9 38.6-32.9 59.8-32 5.77 0.74 10.3 3.26 14.5 7.32 3.03 4.47 5.12 8.67 5.14 14.1 0 0.84 0.01 1.68 0.01 2.55 0.01 1.38 0.01 1.38 0.01 2.8 0 0.98 0.01 1.96 0.01 2.97 0.02 3.3 0.03 6.6 0.03 9.91l0.03 7.08c0.03 5.76 0.05 11.5 0.07 17.3 0.02 6.71 0.04 13.4 0.07 20.2 0.05 12 0.09 24 0.13 36 0.04 11.6 0.08 23.2 0.13 34.9v2.16c0.02 2.87 0.03 5.74 0.04 8.62 0.08 22.1 0.16 44.2 0.24 66.2 0.01 2.3 0.02 4.61 0.02 6.92 0.02 3.17 0.03 6.33 0.04 9.5 0 1.35 0 1.35 0.01 2.73 0.02 7.37 0.02 14.8 0.02 22.1l71-1c0.04-57.8 0.08-116 0.1-174 0-6.83 0.01-13.6 0.01-20.5v-2.06c0.01-22 0.02-44 0.04-66.1 0.02-23.3 0.03-46.5 0.04-69.8 0-13.9 0.01-27.9 0.02-41.8 0.01-9.55 0.02-19.1 0.02-28.7-0.01-5.52 0-11 0.01-16.6 0.01-5.04 0.01-10.1 0-15.1 0-1.83 0-3.66 0.01-5.48 0.01-2.49 0-4.97-0.01-7.45 0.01-1.07 0.01-1.07 0.02-2.16-0.03-5.24-0.47-10.5-3.81-14.8-0.58-0.46-1.17-0.93-1.76-1.41-0.58-0.48-1.15-0.97-1.74-1.46-4.06-2.43-8.55-2.29-13.2-2.29-1.9-0.01-1.9-0.01-3.83-0.01h-4.21-4.49c-4.13-0.01-8.26 0-12.4 0-4.49 0-8.97 0-13.5-0.01h-23.6c-11.7 0-23.4-0.01-35.1-0.01-22.1-0.01-44.2-0.01-66.3-0.01-17.1 0-34.1-0.01-51.2-0.01h-14.7-3.7c-34.3-0.01-68.7-0.01-103-0.01h-3.92-19.7-3.95-7.91c-41 0-82.1-0.01-123-0.02-46.1-0.02-92.2-0.03-138-0.03h-14.7-3.67c-19.5 0-39 0-58.4-0.01-19.6-0.01-39.1-0.01-58.7 0-11.6 0-23.3 0-34.9-0.01-7.77-0.01-15.5-0.01-23.3 0-4.43 0-8.86 0.01-13.3 0-4.02-0.01-8.05-0.01-12.1 0h-4.35c-11.9-0.42-11.9-0.42-22.2 4.63-4.14 4.96-4.49 8.73-4.48 15.1-0.01 0.86-0.01 1.71-0.02 2.59-0.01 1.86-0.02 3.71-0.03 5.56-0.01 2.94-0.03 5.88-0.05 8.82-0.05 6.25-0.08 12.5-0.11 18.7-0.04 7.22-0.08 14.4-0.14 21.7-0.02 2.89-0.03 5.77-0.03 8.66-0.02 1.78-0.03 3.57-0.04 5.35v2.41c-0.09 8.17-1.15 15.6-6.48 22-5.06 4.84-10.5 5.98-17.4 6.23-6.7-0.24-11.2-1.55-16.2-6.11-5.83-6.31-6.55-12.6-6.53-20.9 0-0.94-0.01-1.88-0.01-2.84-0.02-3.1-0.01-6.19-0.01-9.28-0.01-2.16-0.01-4.32-0.02-6.48v-13.6c0.01-5.78-0.01-11.6-0.03-17.3-0.02-4.46-0.02-8.93-0.01-13.4 0-2.13-0.01-4.25-0.02-6.38-0.09-21.9 3.66-39.1 19.2-55.4 10.4-10 25.2-17.1 39.8-17.1zm-333 162c-10.6 11-19.4 24.6-23.1 39.6-0.21 0.8-0.41 1.59-0.62 2.41-4.95 23.6-0.82 47 11.5 67.6 4.27 6.19 9.95 14.2 17.1 17 16.9-15.5 27.3-35.7 28.3-58.8 0.6-22-3.17-43.2-18.3-60.2-1.63-1.7-3.29-3.38-5-5-1.02-1.14-1.02-1.14-2.06-2.31-2.75-2.39-4.88-2.47-7.84-0.29zm1095 158c-0.79 0.76-0.79 0.76-1.59 1.53-16.4 15.8-30 33.9-41.3 53.6-0.82 1.39-1.65 2.76-2.49 4.13-27 43.8-39.8 98.6-45.4 149-0.27 2.44-0.56 4.87-0.85 7.3-1.8 15.2-2.58 30.2-2.59 45.5 0 1.52-0.01 3.05-0.01 4.58-0.01 3.18-0.01 6.36-0.01 9.54 0 3.2 0 6.4-0.02 9.59-0.1 25.1 0.7 49.9 4.08 74.7 0.26 1.94 0.26 1.94 0.53 3.92 7.57 55.5 23.3 112 54.6 159 0.46 0.7 0.92 1.4 1.39 2.12 10.5 15.9 22.8 30.1 36.2 43.6 0.51 0.53 1.03 1.05 1.55 1.6 1.26 1.26 2.57 2.46 3.89 3.65h2v2h2l1-585c-5.53 0-9.17 5.32-13 9zm-1224 72c-0.54 17.7 10.6 34 22.2 46.4 16.5 16.8 39.4 26.6 62.9 26.9 7.67-0.04 15.9-0.76 22.9-4.25-0.41-16.6-9.27-31.8-20-44-0.66-0.75-1.31-1.5-1.99-2.27-14.4-15.4-35.8-26-56.9-27-15.5-0.92-15.5-0.92-29.1 4.27zm174 27.2c-9.84 11.5-16 25.8-17.9 40.8 11.1 7.34 26.5 5.87 38.9 3.41 23.1-4.96 44.6-17.8 58.1-37.4 6.48-10.1 12-21.7 12-34-1.4-0.48-2.79-0.96-4.19-1.43-0.78-0.27-1.55-0.54-2.35-0.81-31.5-9.66-63.4 7.07-84.6 29.4zm276 145c-0.12 2.24-0.16 4.47-0.18 6.71-0.01 0.7-0.01 1.4-0.02 2.12-0.02 2.33-0.03 4.66-0.04 6.99 0 0.8-0.01 1.59-0.01 2.41-0.02 4.22-0.04 8.44-0.05 12.6-0.01 4.35-0.04 8.7-0.08 13-0.03 3.34-0.04 6.69-0.04 10 0 1.6-0.02 3.2-0.04 4.8-0.02 2.25-0.02 4.5-0.01 6.75-0.01 1.28-0.01 2.56-0.02 3.88 0.76 5.62 2.93 9.32 7.36 13 6.18 3.21 12.7 2.76 19.5 2.75h3.18c3.54 0 7.07 0 10.6-0.01 2.56 0 5.11 0 7.66 0.01 5.57 0 11.1 0 16.7-0.01h24.8c13.9 0 27.8-0.01 41.7-0.01 13.8-0.01 27.6-0.01 41.3-0.01h2.59 13c30.8-0.01 61.6-0.01 92.4-0.02 29.9-0.01 59.9-0.02 89.8-0.02h2.8c9.26 0 18.5-0.01 27.8-0.01h56.6c0.87 0 1.73 0 2.63-0.01 58 0 116-0.02 174-0.04 0.97-3.21 1.05-5.93 0.88-9.27-0.05-1.05-0.1-2.11-0.15-3.19-0.08-1.72-0.08-1.72-0.17-3.46-0.63-14.8-0.68-29.5-0.62-44.3 0-2.53 0.01-5.06 0.01-7.58 0.01-6.08 0.03-12.2 0.05-18.2-60.3-0.01-121-0.03-181-0.04h-2.71c-19.4 0-38.8-0.01-58.2-0.01h-28.5-2.87c-30.7-0.01-61.4-0.01-92.1-0.02-31.5-0.01-63.1-0.02-94.6-0.02h-13.4-2.65c-14.1 0-28.2-0.01-42.4-0.01-14.2-0.01-28.4-0.01-42.5-0.01-8.44 0-16.9 0-25.3-0.01h-18.8-7.66c-3.45-0.01-6.89 0-10.3 0-1.02 0-2.03-0.01-3.07-0.01-1.37 0.01-1.37 0.01-2.76 0.01h-2.39c-1.82-0.07-1.82-0.07-2.79 1.12zm833-1c-1.22 3.67-1.14 7.04-1.13 10.9 0 0.79 0 1.59-0.01 2.42 0 2.64 0 5.28 0.01 7.92-0.01 1.83-0.01 3.66-0.01 5.49 0 3.84 0 7.68 0.01 11.5 0 4.93 0 9.86-0.01 14.8v11.4c0.01 1.81 0 3.63 0 5.45 0 2.54 0 5.07 0.01 7.61 0 0.76 0 1.52-0.01 2.3-0.29 3.43-0.29 3.43 1.14 6.29 1.67 0.11 3.34 0.14 5.02 0.15 1.07 0 2.14 0.01 3.25 0.02h3.54c1.2 0 2.4 0.01 3.63 0.01 2.55 0.01 5.09 0.01 7.64 0.01 3.87 0 7.75 0.02 11.6 0.04h7.41c1.16 0.01 2.31 0.02 3.5 0.03 10.9 0.12 10.9 0.12 20.8-3.96 0.54-0.65 1.08-1.31 1.63-1.98 0.56-0.65 1.11-1.29 1.69-1.95 2.74-4.94 2.43-10.9 2.44-16.4v-2.01c0.01-2.16 0-4.33 0-6.49v-4.54c0.01-3.15 0-6.31 0-9.46-0.01-4.06 0-8.11 0-12.2 0.01-3.11 0-6.23 0-9.35v-4.48c0.01-2.08 0-4.16 0-6.24v-3.59c0.17-2.58 0.17-2.58-1.13-3.66-2.21-0.09-4.42-0.11-6.63-0.11h-2.1c-2.3 0-4.6 0.01-6.9 0.02h-4.77c-4.2 0-8.39 0.01-12.6 0.02-4.28 0.01-8.56 0.02-12.8 0.02-8.4 0.01-16.8 0.03-25.2 0.05zm-1287 37c-0.01 1.73-0.01 3.47-0.02 5.2 0 0.96-0.01 1.93-0.01 2.92 0.04 4.24 0.36 8.44 0.73 12.7 0.07 0.89 0.15 1.78 0.23 2.7 0.24 2.86 0.5 5.72 0.76 8.58 0.08 0.97 0.17 1.95 0.26 2.96 1.43 15.6 3.37 30.8 7.05 46 0.2 0.85 0.4 1.69 0.61 2.57 4.89 19.9 12.6 40.8 26.4 56.4 0.65 0.8 1.3 1.59 1.98 2.41 18.9 22.3 46.6 31.5 75 33.9 4.01 0.3 8.02 0.5 12 0.66 1.02 0.05 2.04 0.09 3.09 0.13 34.5 0.68 67.2-7.08 92.9-31.1v-2h2c30.4-35.3 36.2-84.2 39.2-129 0.05-0.69 0.09-1.39 0.14-2.1 0.13-1.97 0.25-3.93 0.37-5.9 0.07-1.13 0.14-2.27 0.22-3.43 0-0.85 0.01-1.7 0.02-2.57-0.98-1.19-0.98-1.19-2.81-1.12h-2.41c-0.91 0-1.83 0-2.77-0.01-1.52 0.01-1.52 0.01-3.08 0.01h-3.24c-3.62 0-7.24 0-10.9 0.01h-7.74c-5.57 0-11.2 0-16.7 0.01-8.06 0.01-16.1 0.01-24.2 0.01-13.1 0-26.1 0.01-39.2 0.02-12.7 0.01-25.4 0.01-38.1 0.02h-2.37-11.8c-32.6 0.01-65.2 0.03-97.7 0.05zm831 95c-0.1 2.65-0.13 5.27-0.12 7.92v2.51c0.01 2.76 0.01 5.51 0.02 8.26 0 1.91 0 3.81 0.01 5.72 0 5.02 0.01 10 0.02 15.1 0.01 5.13 0.01 10.2 0.02 15.4 0.01 10 0.03 20.1 0.05 30.2 19.5 0.03 39.1 0.04 58.6 0.05 9.07 0.01 18.1 0.02 27.2 0.03 7.9 0.01 15.8 0.01 23.7 0.02 4.19 0 8.38 0 12.6 0.01 3.94 0.01 7.88 0.01 11.8 0.01h4.34c1.97 0.01 3.94 0.01 5.91 0 1.11 0 2.21 0.01 3.35 0.01 2.41 0.15 2.41 0.15 3.47-1.13 0.09-2.61 0.12-5.2 0.11-7.82v-2.48c0-2.73-0.01-5.45-0.01-8.17-0.01-1.88-0.01-3.76-0.01-5.65 0-4.96-0.01-9.92-0.02-14.9-0.01-5.07-0.02-10.1-0.02-15.2-0.01-9.93-0.03-19.9-0.05-29.8-8.69-0.87-17.3-1.14-26-1.13h-4.08c-3.65-0.01-7.3 0-11 0h-11.5-19.3c-7.43 0.01-14.9 0.01-22.3 0h-19.2-11.4c-3.57-0.01-7.14 0-10.7 0h-5.83c-1.72 0-1.72 0-3.47 0.01h-3.04c-2.21-0.13-2.21-0.13-3.24 1.12zm197 0c-0.1 2.65-0.13 5.27-0.12 7.92v2.51c0.01 2.76 0.01 5.51 0.02 8.26 0 1.91 0 3.81 0.01 5.72 0 5.02 0.01 10 0.02 15.1 0.01 6.02 0.02 12 0.02 18.1 0.01 9.15 0.03 18.3 0.05 27.5h84c1.33-2.67 0.7-3.57-0.19-6.39-0.28-0.92-0.57-1.84-0.86-2.79-0.47-1.52-0.47-1.52-0.95-3.07-6.3-21-11-42.2-14.4-63.9-0.19-1.15-0.37-2.3-0.56-3.49-0.23-1.53-0.23-1.53-0.47-3.09-0.19-0.76-0.38-1.52-0.57-2.3-2.74-1.37-4.93-1.12-8-1.13-1.25 0-2.51 0-3.81-0.01-1.38 0.01-2.75 0.01-4.13 0.01h-4.22-8.85c-3.79 0.01-7.58 0.01-11.4 0h-8.72-4.19c-1.95-0.01-3.9 0-5.85 0-1.11 0-2.22 0.01-3.36 0.01-2.44-0.16-2.44-0.16-3.5 1.12zm-1086 131v107c25.3 0.09 25.3 0.09 50.6 0.18 0.89 0 1.79 0.01 2.71 0.01 42 0.14 83.9 0.26 126 0.37 3.69 0.01 7.37 0.02 11 0.02 84.5 0.23 169 0.39 702-0.01 4.63-0.01 9.26-0.01 13.9-0.02 104-0.14 207-0.3 361-0.55-0.96-1.12-1.91-2.25-2.87-3.37-0.8-0.94-0.8-0.94-1.61-1.9-1.7-1.93-3.49-3.59-5.46-5.23-6.62-5.65-12.4-11.9-18.1-18.5-0.8-0.91-1.61-1.82-2.43-2.76-19.8-22.7-34.8-48.1-47.6-75.2h-1190zm1345 0c-0.65 3.56-1.13 6.95-1.12 10.6 0 0.86 0 1.72-0.01 2.6 0.01 0.92 0.01 1.84 0.01 2.8v2.98c0.01 3.25 0.01 6.5 0.02 9.74 0 2.26 0 4.51 0.01 6.77 0 5.93 0.01 11.9 0.02 17.8 0.01 6.06 0.01 12.1 0.02 18.2 0.01 11.9 0.03 23.7 0.05 35.6 2.81 1.41 5.13 1.11 8.28 1.09 0.65-0.01 1.3-0.01 1.97-0.01l6.57-0.06c1.57-0.01 3.13-0.02 4.7-0.02 4.26-0.03 8.53-0.06 12.8-0.1l13.4-0.09c8.43-0.06 16.9-0.12 25.3-0.18 9.6-0.07 19.2-0.14 28.8-0.2 19.8-0.14 39.5-0.28 59.2-0.43 0.6-16.5 1.16-33 1.13-49.5v-4.97c0.01-3.4 0-6.79 0-10.2-0.01-4.35 0-8.71 0-13.1 0.01-3.39 0-6.78 0-10.2v-4.83c0.01-2.22 0-4.44 0-6.65v-3.81c0.19-2.71 0.19-2.71-1.13-3.81-2.06-0.09-4.13-0.12-6.2-0.12h-1.98c-2.21 0-4.41 0-6.62 0.01h-4.73c-4.3 0-8.59 0-12.9 0.01-4.48 0.01-8.96 0.01-13.4 0.01-8.49 0-17 0.01-25.5 0.02-9.67 0.01-19.3 0.02-29 0.02-19.9 0.01-39.8 0.03-59.7 0.05zm-1345 154c-0.1 2.54-0.13 5.06-0.12 7.6v2.44c-0.01 2.72 0 5.44 0 8.16 0.01 1.94 0.01 3.88 0 5.82 0 5.29 0.01 10.6 0.02 15.9 0 5.52 0 11 0.01 16.6 0 10.5 0.01 20.9 0.02 31.4 0.01 11.9 0.01 23.8 0.02 35.7 0.01 24.5 0.03 49 0.05 73.5 53.7 0.03 107 0.04 161 0.05 6.33 0.01 12.7 0.01 19 0.01h3.82c20.4 0 40.9 0.01 61.4 0.02 21 0.01 41.9 0.02 62.9 0.02 13 0 25.9 0 38.8 0.01 8.87 0.01 17.7 0.01 26.6 0.01h15.4c4.68 0.01 9.37 0.01 14 0 1.7 0 3.4 0 5.1 0.01h6.9 3.88c2.89 0.08 2.89 0.08 4.96-1.13v-196c-2.94-1.47-5.54-1.12-8.82-1.12-1.07-0.01-1.07-0.01-2.16-0.01-2.41 0-4.83 0-7.24 0.01-1.74-0.01-3.47-0.01-5.21-0.01h-14.4-15.5c-10.1-0.01-20.2-0.01-30.4 0h-24.7-3.54-7.12c-22.3-0.01-44.5 0-66.8 0-19.1 0.01-38.3 0.01-57.4 0h-66.6-7.09-3.52-24.6c-10-0.01-20-0.01-30 0h-15.3-14c-1.7 0.01-3.4 0-5.1 0-2.29 0-4.58 0-6.87 0.01h-3.87c-2.72-0.2-2.72-0.2-3.82 1.12zm856 113c-1.06 0.13-2.11 0.26-3.2 0.39-41.6 5.33-81.8 18.1-113 47.4-0.68 0.63-1.35 1.25-2.05 1.89-19.6 18.7-31.5 44.6-36 71.1-0.02 2-0.03 4 0 6 46.9 0.04 93.8 0.07 141 0.09h2.11c15.1 0 30.2 0.01 45.3 0.02h22.2 2.23c23.8 0.01 47.7 0.03 71.6 0.05 24.5 0.01 49.1 0.03 73.6 0.03h10.4 2.07c11 0.01 21.9 0.01 32.9 0.03 11 0.01 22.1 0.01 33.1 0.01 5.97 0 11.9 0 17.9 0.01 5.48 0.01 11 0.01 16.4 0 1.96 0 3.93 0.01 5.9 0.01 10.1 0.03 20.2-0.24 30.2-1.12 0.88-0.07 1.76-0.15 2.66-0.22 24.2-2.33 47.6-11.1 63.7-29.9 2.65-3.52 4.89-7.13 7-11 0.51-0.91 1.02-1.83 1.55-2.77 11.7-23 15.6-53 15.5-78.6 0-1.06 0-2.13-0.01-3.22 0-1.21 0-1.21-0.01-2.44-51-0.02-102-0.04-153-0.05h-18.1-3.64c-19.4-0.01-38.8-0.01-58.2-0.02-20-0.01-39.9-0.02-59.8-0.02-12.3 0-24.6-0.01-36.9-0.01-8.44-0.01-16.9-0.01-25.3-0.01-4.86 0-9.72 0-14.6-0.01-36.8-0.34-36.8-0.34-73.4 2.37zm-856 130v197c4.28 0.86 7.72 1.13 12 1.13 0.7 0 1.4 0.01 2.12 0.01h7.07 5.11c4.69 0.01 9.37 0.01 14.1 0.01 5.05 0 10.1 0 15.2 0.01 9.9 0.01 19.8 0.01 29.7 0.01 8.04 0 16.1 0 24.1 0.01 22.8 0 45.6 0.01 68.4 0.01h3.73 3.73c20 0 39.9 0.01 59.9 0.02 20.5 0.02 41 0.02 61.4 0.02 11.5 0 23 0 34.5 0.02 9.79 0 19.6 0.01 29.4 0h15c4.58 0.01 9.15 0.01 13.7 0 1.66 0 3.31 0 4.97 0.01 2.25 0.01 4.5 0 6.74-0.01h3.79c3.9-0.15 3.9-0.15 9.39-2.25v-196h-424z" fill="#000100"/>
<path transform="translate(1587 1309)" d="m0 0c6.05 3.89 9.8 8.97 11.7 15.9 0.82 4.09 0.7 8.2 0.68 12.3 0 1.02 0.01 2.04 0.01 3.08 0.01 3.4 0 6.8-0.01 10.2 0.01 2.44 0.01 4.88 0.01 7.32 0.01 5.93 0.01 11.9 0.01 17.8-0.01 4.83-0.01 9.65-0.01 14.5v2.08c0 1.4 0 2.79 0.01 4.19 0 13.1-0.01 26.2-0.02 39.3-0.01 11.2 0 22.4 0.01 33.7 0.01 13 0.01 26.1 0 39.1v4.18 2.07c0 4.82 0 9.63 0.01 14.4 0 6.49 0 13-0.01 19.5v7.13c0.01 3.26 0 6.51-0.01 9.76 0 0.94 0.01 1.88 0.01 2.84-0.05 9.21-0.95 16.2-7.46 23-5.58 5.13-10.9 5.97-18.2 5.87-6.8-0.56-11.8-3.4-16.6-8.21-8.17-9.95-5.14-29.3-5.12-41.6-0.01-1.81-0.01-3.62-0.01-5.44v-14.7-15.5-26.2c0.01-8.86 0.01-17.7 0-26.6-0.01-28.3 0.01-56.6 0.13-84.9 0.01-0.78 0.01-1.57 0.01-2.38 0.04-8.37 0.1-16.7 0.21-25.1 0.03-2.05 0.05-4.11 0.06-6.16 0.02-2.7 0.07-5.39 0.12-8.08v-2.24c0.18-6.4 2.39-11.5 6.57-16.3 0.65-0.54 1.3-1.08 1.97-1.64 0.65-0.55 1.3-1.1 1.97-1.67 7.04-4.86 16.3-5.29 24-1.45z" fill="#000100"/>
<path transform="translate(190 1297)" d="m0 0c1.67-0 3.33-0 5-0.01 4.49 0 8.99 0.01 13.5 0.02 4.73 0.01 9.45 0 14.2 0 7.93 0 15.9 0.01 23.8 0.03 9.14 0.01 18.3 0.02 27.4 0.02 9.77 0 19.5 0 29.3 0.01 2.8 0 5.6 0.01 8.4 0.01 4.41 0 8.83 0 13.2 0.01 1.61 0.01 3.22 0.01 4.83 0.01 27.2-0.01 27.2-0.01 36.2 7.39 4.67 5.72 5.89 11.6 5.66 18.9-0.9 6.16-3.73 11.7-8.41 15.8-5.27 3.52-9.61 4.32-15.9 4.41-0.78 0.02-1.56 0.04-2.37 0.06-2.62 0.06-5.24 0.11-7.86 0.15-1.88 0.04-3.75 0.08-5.63 0.11-21 0.4-41.9 0.43-62.8 0.4h-13.2c-12.9 0.02-25.9-0.01-38.8-0.09-4.38-0.03-8.76-0.04-13.2-0.05-5.46 0-10.9-0.04-16.4-0.09-2.05-0.02-4.09-0.03-6.13-0.02-18.9 0.02-18.9 0.02-25.3-5.17-5.16-5.75-7.76-12-7.53-19.7 0.76-7.86 3.76-13.1 9.56-18.3 9.85-4.83 21.6-3.97 32.3-3.93z" fill="#000100"/>
<path transform="translate(174 1054)" d="m0 0c0.76-0 1.53-0.01 2.31-0.01 2.55-0.01 5.1-0.01 7.64 0 1.83-0.01 3.66-0.01 5.49-0.02 4.97-0.01 9.93-0.01 14.9-0.01 4.15 0 8.29 0 12.4-0.01 9.79-0.01 19.6-0.01 29.4 0 10.1 0 20.2-0.01 30.3-0.03 8.67-0.02 17.3-0.03 26-0.02 5.17 0 10.3 0 15.5-0.02 4.87-0.01 9.73-0.01 14.6 0 1.78 0.01 3.57 0 5.35 0 2.44-0.01 4.88-0.01 7.32 0.01 0.7-0.01 1.4-0.02 2.12-0.03 7.2 0.08 13.8 2.24 18.9 7.4 4.65 6.73 5.82 13 5 21-1.6 6.28-4.83 10.3-9.61 14.6-5.61 3.31-11.9 3.71-18.3 3.67-1.13 0.01-1.13 0.01-2.29 0.01-2.51 0.01-5.03 0.01-7.54 0.01-1.81 0-3.62 0-5.43 0.01-4.91 0.01-9.81 0.01-14.7 0.01-4.1 0-8.2 0.01-12.3 0.01-9.66 0.01-19.3 0.01-29 0.01-9.97-0.01-19.9 0-29.9 0.02-8.57 0.02-17.1 0.03-25.7 0.02-5.11 0-10.2 0.01-15.3 0.02-4.81 0.01-9.62 0.01-14.4 0-1.76-0.01-3.53 0-5.29 0.01-2.41 0.01-4.82 0-7.23-0.02-0.69 0.01-1.38 0.02-2.09 0.03-5.91-0.07-11.3-1.45-16-5.09-5.06-5.89-8-11.5-7.66-19.4 1.03-7.64 3.12-12.3 8.74-17.7 5.4-3.89 10.4-4.54 16.9-4.51z" fill="#000100"/>
</svg>
