<?xml version="1.0" encoding="UTF-8"?>
<svg version="1.1" viewBox="0 0 1600 1600" width="1280" height="1280" xmlns="http://www.w3.org/2000/svg">
<path transform="translate(646 9.87)" d="m0 0c0.66-0 1.32-0 2-0.01h6.7c1.62 0 3.23 0 4.85-0.01h13.4c4.86 0 9.71-0.01 14.6-0.02 9.65-0.01 19.3-0.01 28.9-0.02 11.5 0 23.1-0.01 34.6-0.02 27.9-0.03 55.8-0.05 83.7-0.06 9.24 0 18.5-0.01 27.7-0.01 48.4-0.03 96.8-0.05 145-0.06h10.6 2.13c7.12-0.01 14.2-0.01 21.4-0.01h4.28c45.9-0.01 91.7-0.04 138-0.08 33-0.03 65.9-0.06 98.8-0.07h2.05c14.9-0.01 29.7-0.01 44.6-0.01h18 3.97c21.1-0.01 42.2-0.03 63.3-0.05 21.2-0.03 42.4-0.04 63.6-0.03 12.6 0.01 25.2 0 37.8-0.03 8.41-0.01 16.8-0.01 25.2 0 4.8 0.01 9.59 0.01 14.4-0.01 4.36-0.02 8.72-0.02 13.1 0.01 1.57 0 3.14 0 4.71-0.02 14-0.11 14-0.11 19.8 3.88 6.09 6.35 7.42 10.8 7.32 19.6 0 1.09 0.01 2.18 0.02 3.3 0.02 3.66 0 7.33-0.02 11 0.01 2.66 0.01 5.32 0.02 7.98 0.02 5.8 0.02 11.6 0.01 17.4-0.02 8.69-0.01 17.4 0 26.1 0.03 14.8 0.03 29.6 0.02 44.4-0.02 15-0.02 30-0.01 45 0 0.95 0.01 1.9 0.01 2.87 0 3.86 0 7.72 0.01 11.6 0.03 39.2 0.03 78.4 0.02 118 0 5.42-0.01 10.8-0.01 16.3v3.26c0 24.9 0 49.9 0.01 74.8v6.52 26.2c0.01 24.4 0.02 48.9 0.02 73.3v3.38c0 35.5 0 71-0.01 106v3.49c-0.01 18.7-0.01 37.4-0.02 56.1-0.02 74.2-0.01 148 0.03 222 0 18.7 0.01 37.4 0.02 56.1v3.48c0.02 35.4 0.02 70.9 0.02 106v3.37 73.2c0 8.74-0.01 17.5-0.01 26.2v6.52c0 34.7 0.01 69.3 0.03 104 0.02 35.9 0.02 71.7-0.01 108-0.01 3.85-0.01 7.7-0.01 11.6v2.86c-0.01 15 0 30 0.01 44.9 0.02 14.7 0.02 29.4-0.01 44.2-0.01 8.63-0.01 17.3 0.01 25.9 0.02 5.73 0.01 11.4-0.01 17.2-0.02 3.26-0.02 6.51 0 9.76 0.02 3.49 0.01 6.98-0.02 10.5 0.01 1.01 0.03 2.01 0.04 3.05-0.11 6.95-1.96 10.9-6.79 15.9-4.8 4.35-8.04 5.12-14.4 5.13-0.99 0-0.99 0-2 0.01h-6.69c-1.62 0-3.23 0.01-4.85 0.01-4.46 0.01-8.93 0.01-13.4 0.01-4.85 0-9.7 0.01-14.6 0.02-9.63 0.01-19.3 0.02-28.9 0.02l-34.6 0.03c-29.2 0.04-58.4 0.06-87.6 0.07-7.91 0.01-15.8 0.01-23.7 0.02-48.3 0.03-96.7 0.06-145 0.07-11.4 0.01-22.7 0.01-34.1 0.01-1.43 0-2.86 0.01-4.28 0.01-45.8 0.01-91.6 0.05-137 0.1-32.9 0.04-65.8 0.07-98.7 0.08h-2.05c-14.2 0.01-28.4 0.01-42.6 0.01-6.64 0.01-13.3 0.01-19.9 0.01h-3.96c-21.1 0-42.1 0.03-63.2 0.06-21.2 0.03-42.3 0.04-63.5 0.03-12.6-0.01-25.2 0-37.8 0.04-8.4 0.02-16.8 0.02-25.2 0-4.79-0.01-9.58-0.01-14.4 0.01-4.36 0.03-8.71 0.02-13.1 0-1.57-0.01-3.13 0-4.7 0.02-14 0.14-14 0.14-19.8-4.7-22.6-29.4-5.59-74-5.59-111h-292v76l13-1c4.14-0.09 8.25-0.14 12.4-0.13 1.11 0 2.22 0 3.37-0.01 2.32 0 4.63 0.01 6.95 0.01 3.57 0.01 7.14 0 10.7-0.01 2.26 0 4.52 0.01 6.78 0.01 1.61-0.01 1.61-0.01 3.24-0.01 0.98 0 1.96 0.01 2.97 0.01h2.62c1.97 0.13 1.97 0.13 2.97 1.13v35h-159v-35c27.7-0.5 27.7-0.5 56-1 1.16-3.48 1.12-6.18 1.11-9.86v-2.13c0-2.28-0.01-4.56-0.01-6.83-0.01-1.41-0.01-2.82-0.01-4.22 0-5.22-0.02-10.4-0.03-15.6-0.02-11.6-0.04-23.3-0.06-35.3-26.7-0.33-53.5-0.66-81-1-0.99 3.63-1.98 7.26-3 11-0.55 1.89-1.11 3.79-1.69 5.67-0.3 0.98-0.6 1.96-0.91 2.96-0.32 1.03-0.64 2.06-0.96 3.12-0.35 1.11-0.69 2.23-1.04 3.37-3.12 10.1-6.35 20.1-9.61 30.1-2.15 6.62-4.26 13.3-6.29 19.9-0.2 0.66-0.4 1.32-0.61 2-0.96 3.14-1.91 6.29-2.85 9.43-5.16 17-5.16 17-12 21.4-0.53 0.36-1.07 0.71-1.62 1.08-3.61 1.39-7.24 1.23-11.1 1.24-0.88 0.01-1.75 0.02-2.65 0.03-2.9 0.03-5.79 0.05-8.69 0.06-2.01 0.01-4.03 0.02-6.04 0.03-4.23 0.02-8.46 0.03-12.7 0.04-5.41 0.01-10.8 0.06-16.2 0.12-4.16 0.03-8.33 0.04-12.5 0.05-1.99 0-3.98 0.02-5.97 0.05-2.8 0.03-5.59 0.03-8.38 0.01-1.23 0.03-1.23 0.03-2.48 0.06-5.44-0.08-8.83-1.44-13-4.97-5.56-5.82-6.3-11.8-6.18-19.6v-2.87c0.01-3.11 0.04-6.21 0.07-9.32 0.01-2.16 0.01-4.33 0.02-6.49 0.01-5.68 0.05-11.4 0.09-17 0.04-5.8 0.06-11.6 0.08-17.4 0.05-11.4 0.11-22.7 0.2-34.1-1.14 0.01-2.27 0.03-3.45 0.04-1.52 0.01-3.04 0.02-4.56 0.03-1.12 0.02-1.12 0.02-2.26 0.03-18 0.1-32.9-5.88-45.9-18.1-12-12.4-16.3-28.1-16.3-44.9-0.01-1.38-0.02-2.75-0.03-4.13-0.02-3.71-0.02-7.42-0.02-11.1 0-3.12-0.01-6.23-0.02-9.34-0.02-7.36-0.02-14.7-0.01-22.1 0-7.55-0.02-15.1-0.06-22.6-0.03-6.51-0.04-13-0.03-19.5 0-3.88-0.01-7.76-0.03-11.6-0.02-3.65-0.02-7.31 0-11 0-1.95-0.02-3.9-0.04-5.85 0.15-15.6 5.86-28.8 15.7-40.8-0.45-0.68-0.9-1.36-1.36-2.05-9.45-14.6-14.1-26.3-14.1-43.8-0.01-1.44-0.01-2.87-0.02-4.3-0.02-3-0.02-6-0.01-9 0-3.02-0.01-6.04-0.04-9.07-0.44-42.1 9.63-81 39.6-112 15.3-15.4 32.7-26.2 52.9-33.9-2.62-26-5.49-52-8.33-78-0.58-5.29-1.15-10.6-1.73-15.9-4.06-37.3-4.06-37.3-8.27-74.5-0.3-2.55-0.59-5.1-0.88-7.65-1.05-9.06-1.05-9.06-2.11-18.1-4.48-37.5-4.48-37.5-1.12-50.9 0.18-0.74 0.35-1.47 0.53-2.23 6.79-26.7 24.4-46.9 47.5-60.9 20.7-11.7 43.1-15 66.6-14.9h3.82c3.42 0 6.83 0 10.2 0.01 3.59 0 7.17 0.01 10.8 0.01 6.77 0 13.5 0.01 20.3 0.02 7.71 0.01 15.4 0.01 23.1 0.02 15.8 0.01 31.7 0.03 47.6 0.05l-1-3c-0.09-1.64-0.13-3.28-0.12-4.91-0.01-1.02-0.01-2.04-0.01-3.09 0-1.13 0.01-2.25 0.01-3.41v-3.61c-0.01-3.31 0-6.62 0-9.93 0.01-3.57 0.01-7.14 0-10.7 0-6.18 0.01-12.4 0.01-18.6 0.01-8.94 0.01-17.9 0.01-26.8 0.01-14.5 0.01-29 0.02-43.5 0.01-14.1 0.02-28.2 0.02-42.3v-2.63c0.01-4.35 0.01-8.71 0.01-13.1 0.01-36.2 0.03-72.3 0.05-108-0.77 0-1.54 0-2.33-0.01-18.7-0.06-37.4-0.13-56-0.23-9.04-0.04-18.1-0.08-27.1-0.11-7.88-0.02-15.8-0.05-23.6-0.1-4.17-0.02-8.34-0.04-12.5-0.05-3.92 0-7.85-0.02-11.8-0.05-1.44-0.01-2.88-0.02-4.32-0.02-1.97 0.01-3.94-0.01-5.91-0.03-1.65-0.01-1.65-0.01-3.33-0.02-6.09-0.76-10.2-3.77-14.1-8.38-5.93-9.48-1.72-22.8-0.14-33.2l0.87-5.82 0.93-6.24c1.02-6.82 2.03-13.6 3.04-20.5 0.36-2.43 0.73-4.86 1.09-7.3 2.47-16.6 4.88-33.3 7.28-49.9 0.62-4.29 1.24-8.57 1.86-12.9 2.59-17.9 5.17-35.8 7.72-53.8 1.03-7.28 2.07-14.6 3.11-21.8 0.86-6 1.71-12 2.56-18 0.52-3.72 1.05-7.44 1.59-11.2 0.24-1.72 0.49-3.45 0.73-5.17 3.62-25.9 3.62-25.9 11.4-32.2 4.95-2.73 10.1-2.28 15.6-2.26 1.08 0 2.17-0.01 3.28-0.01 3.63-0.01 7.26-0.01 10.9 0 2.6-0.01 5.2-0.01 7.8-0.02 6.34-0.01 12.7-0.01 19-0.01 5.15 0 10.3 0 15.4-0.01h2.22 4.47c14-0.01 27.9-0.01 41.9 0 12.8 0 25.5-0.01 38.3-0.03 13.1-0.02 26.2-0.03 39.3-0.02 7.36 0 14.7 0 22.1-0.02 6.93-0.01 13.8-0.01 20.8 0 2.54 0.01 5.09 0 7.63 0 3.46-0.02 6.93-0.01 10.4 0.01 1.01-0.01 2.01-0.02 3.05-0.03 6.28 0.05 11.5 0.61 16.5 4.8 5.79 8.25 6.73 19 8.07 28.8 0.15 1.05 0.3 2.11 0.46 3.19 0.49 3.47 0.97 6.94 1.46 10.4 0.35 2.47 0.7 4.93 1.05 7.4 0.74 5.22 1.48 10.4 2.21 15.7 1.15 8.16 2.3 16.3 3.46 24.5 0.09 0.68 0.19 1.35 0.29 2.05 0.38 2.71 0.77 5.43 1.15 8.14 0.58 4.05 1.15 8.09 1.72 12.1 2.85 20.1 5.75 40.2 8.73 60.3 0.48 3.28 0.97 6.57 1.45 9.85 1.58 10.7 3.16 21.4 4.76 32.1 0.87 5.83 1.74 11.7 2.6 17.5 0.36 2.39 0.71 4.78 1.07 7.16 0.49 3.24 0.97 6.48 1.45 9.72 0.14 0.93 0.29 1.85 0.43 2.81 2.26 15.6 2.26 15.6-0.17 21.8-3.95 5.26-7.22 8.74-13.9 10.1-2.05 0.09-4.09 0.12-6.14 0.12h-3.81c-1.39 0-2.79 0-4.18-0.01h-4.48c-4 0-7.99 0-12-0.01-3.75 0-7.5 0-11.2-0.01-11 0-21.9-0.01-32.9-0.03-24.5-0.02-49-0.04-74.2-0.06v295h292c-0.02-21-0.04-42-0.06-63.6-0.02-14-0.03-28-0.04-42 0-0.89-0.01-1.78-0.01-2.7-0.02-30-0.04-59.9-0.06-89.9v-2.96c-0.01-21.2-0.03-42.5-0.04-63.7 0-10.4-0.01-20.8-0.01-31.2v-3.15c-0.02-33.6-0.05-67.2-0.09-101-0.03-34.5-0.06-69.1-0.07-104v-14.6-2.91c-0.01-15.5-0.03-30.9-0.05-46.4-0.02-15.5-0.03-31.1-0.03-46.6 0.01-9.23 0-18.5-0.02-27.7-0.02-6.17-0.02-12.3-0.01-18.5 0.01-3.52 0.01-7.03-0.01-10.6-0.02-3.78-0.01-7.57 0.01-11.4-0.02-1.64-0.02-1.64-0.04-3.32 0.07-7.19 1.11-11.7 6.16-17.1 4.71-3.58 6.78-4.39 12.7-4.39zm17.7 35.1v119h899c0.82-3.28 1.12-5.51 1.13-8.8v-2.92-3.18-3.37c0.01-3.67 0-7.35 0-11v-7.65c0.01-5.34 0-10.7 0-16-0.01-6.18 0-12.4 0-18.5 0.01-5.94 0.01-11.9 0-17.8v-7.59c0.01-3.53 0-7.06 0-10.6v-3.2-2.89c0-0.83-0.01-1.67-0.01-2.53 0.09-1.9 0.09-1.9-1.12-2.89-1.96-0.1-3.93-0.12-5.89-0.12-1.94-0.01-1.94-0.01-3.91-0.01-1.46 0-2.91 0-4.36 0.01-1.54 0-3.07-0.01-4.61-0.01-4.25 0-8.51 0-12.8 0.01h-13.8-24.3c-12 0.01-24.1 0.01-36.1 0.01-20.3-0.01-40.5 0-60.8 0-20.1 0.01-40.1 0.01-60.2 0.02h-3.77-19c-44.9 0-89.7 0.01-135 0.01-10.9 0.01-21.8 0.01-32.6 0.01h-2.05c-31.4 0.01-62.7 0.01-94.1 0.01-2.03 0.01-4.07 0.01-6.1 0.01h-40.5c-27.5 0-55 0-82.4 0.01h-3.83c-65.4 0.01-131 0.02-196 0.03h-2.79c-18.1 0-36.2 0.01-54.2 0.01zm-459 126c-0.51 2.38-0.91 4.69-1.25 7.09-0.16 1.1-0.16 1.1-0.33 2.22-0.36 2.45-0.72 4.89-1.07 7.34-0.25 1.73-0.5 3.45-0.76 5.18-0.67 4.58-1.34 9.17-2 13.8-0.53 3.62-1.06 7.25-1.59 10.9-2.73 18.6-5.39 37.2-7.95 55.8-1.74 12.6-3.58 25.1-5.51 37.7-2.76 18-5.45 36.1-8.04 54.2-0.2 1.36-0.2 1.36-0.39 2.74-0.37 2.5-0.72 5.01-1.08 7.52-0.11 0.74-0.21 1.47-0.32 2.23-0.4 2.83-0.71 5.53-0.71 8.39h287c-0.66-8.54-1.44-16.8-2.72-25.3-0.27-1.79-0.27-1.79-0.54-3.61-0.39-2.62-0.78-5.25-1.18-7.87-0.99-6.63-1.98-13.3-2.96-19.9-0.24-1.65-0.49-3.29-0.73-4.94-2.35-15.8-4.66-31.6-6.95-47.5-0.36-2.46-0.72-4.92-1.07-7.38-1.43-9.84-2.86-19.7-4.28-29.5l-2.55-17.6c-0.31-2.17-0.63-4.33-0.94-6.5-0.86-5.95-1.73-11.9-2.62-17.8-0.33-2.18-0.65-4.36-0.97-6.55-0.52-3.49-1.05-6.99-1.59-10.5-0.16-1.1-0.32-2.19-0.48-3.31-0.24-1.5-0.24-1.5-0.48-3.03-0.13-0.89-0.26-1.78-0.4-2.69-0.18-0.67-0.36-1.34-0.54-2.03-3.3-1.65-6.99-1.14-10.6-1.13-1.35-0.01-1.35-0.01-2.73-0.01-3.05-0.01-6.09-0.01-9.13-0.01-2.18 0-4.35 0-6.53-0.01-5.92 0-11.8-0.01-17.8-0.01-4.94 0-9.87 0-14.8-0.01-11.6 0-23.3-0.01-34.9-0.01-12 0.01-24-0.01-36.1-0.02-10.3-0.01-20.6-0.02-30.9-0.02-6.16 0-12.3 0-18.5-0.01-5.79-0.01-11.6-0.01-17.4 0-2.13 0-4.26-0.01-6.39-0.01-2.9-0.01-5.8-0.01-8.69 0-0.86 0-1.71-0.01-2.59-0.01-4.49-0.17-4.49-0.17-8.03 2.26zm459 29c-0.1 2.74-0.13 5.46-0.12 8.2-0.01 0.87-0.01 1.75-0.01 2.65 0 2.96 0 5.93 0.01 8.9v6.4c-0.01 5.89 0 11.8 0 17.7 0.01 6.35 0.01 12.7 0 19 0 11 0.01 22 0.01 33 0.01 11.5 0.01 23.1 0.01 34.6v2.17 10.9c0.01 25.8 0.01 51.6 0.02 77.4 0.01 25.1 0.02 50.1 0.02 75.2v2.34c0.01 7.75 0.01 15.5 0.01 23.3 0 15.8 0 31.6 0.01 47.4v2.21c0.01 48.5 0.02 97.1 0.04 146 0.9 0 1.8 0.01 2.73 0.01 22 0.08 44 0.17 66 0.28 10.6 0.05 21.3 0.09 31.9 0.13 9.28 0.03 18.6 0.07 27.8 0.12 4.91 0.03 9.82 0.05 14.7 0.06 4.63 0.02 9.26 0.04 13.9 0.07 1.68 0.01 3.37 0.01 5.06 0.01 35.1 0.06 67.2 8.22 92.8 33.3 16.7 17.5 25.2 40.2 25.1 64.3-0.13 4.46-0.59 8.87-1.08 13.3-0.11 1.03-0.21 2.06-0.33 3.12-0.36 3.45-0.74 6.9-1.11 10.3-0.26 2.47-0.53 4.94-0.79 7.4-3.07 28.6-6.25 57.2-9.45 85.8-0.18 1.62-0.36 3.24-0.54 4.87-0.88 7.89-1.77 15.8-2.72 23.7-0.14 1.19-0.28 2.38-0.43 3.6-0.25 2.14-0.52 4.27-0.78 6.41-0.17 1.41-0.17 1.41-0.35 2.85-0.09 0.79-0.19 1.58-0.29 2.4-0.31 4.3-0.25 8.6-0.21 12.9 22 0.02 44 0.04 66 0.05 10.2 0.01 20.4 0.01 30.7 0.03 8.91 0.01 17.8 0.01 26.7 0.01 4.72 0.01 9.44 0.01 14.2 0.02h13.3c1.64 0 3.27 0.01 4.9 0.01h6.66 3.78c2.67 0.2 2.67 0.2 3.76-1.12 0.1-1.73 0.12-3.46 0.12-5.2 0.01-1.13 0.01-2.27 0.01-3.44 0-1.27-0.01-2.53-0.01-3.84 0-1.35 0-2.7 0.01-4.05 0-3.74 0-7.49-0.01-11.2v-12.2-21.4c-0.01-10.6-0.01-21.2-0.01-31.8 0-17.8 0-35.6-0.01-53.5 0-17.6-0.01-35.3-0.01-53v-3.32-16.7c0-39.5-0.01-79-0.02-118-0.01-38.4-0.01-76.7-0.02-115v-3.58-35.6c0-24.2-0.01-48.4-0.01-72.5v-3.37c-0.01-74.3-0.02-149-0.04-223-11.2-0.84-22.4-1.14-33.7-1.13h-5.18c-4.69-0.01-9.39 0-14.1 0h-15.2c-9.92-0.01-19.8-0.01-29.8-0.01-8.06 0.01-16.1 0.01-24.2 0.01h-3.48c-2.33 0-4.67 0-7-0.01-21.9 0-43.7 0.01-65.6 0.01h-56.3c-21.8-0.01-43.6-0.01-65.4 0h-6.96-3.47c-8.06 0-16.1 0-24.2-0.01-9.81 0-19.6 0-29.4 0.01h-15c-4.57-0.01-9.15 0-13.7 0h-4.99-6.73-3.79c-2.68-0.19-2.68-0.19-3.77 1.13zm468 0c-0.1 1.73-0.13 3.47-0.13 5.2v3.45c0 1.27 0 2.54 0.01 3.84-0.01 1.35-0.01 2.71-0.01 4.06 0 3.75 0 7.5 0.01 11.2v12.2c-0.01 7.14 0 14.3 0 21.4 0.01 10.6 0.01 21.2 0 31.8 0 17.8 0.01 35.7 0.01 53.5 0.01 17.7 0.01 35.4 0.01 53v3.33 16.7c0.01 39.5 0.01 79 0.02 119 0.01 38.4 0.02 76.8 0.02 115v3.58c0.01 11.9 0.01 23.8 0.01 35.6 0 24.2 0 48.4 0.01 72.6v3.37c0.01 74.4 0.02 149 0.04 223 54.9 0.02 110 0.04 165 0.05h19.4c1.29 0.01 2.57 0.01 3.9 0.01 20.9 0 41.8 0.01 62.7 0.02 21.4 0.01 42.8 0.01 64.3 0.01 13.2 0.01 26.5 0.01 39.7 0.02h27.2c5.24 0 10.5 0 15.7 0.01h14.4 5.22c2.35 0.01 4.7 0.01 7.04 0h3.97c2.78 0.21 2.78 0.21 3.89-1.12 0.1-1.73 0.12-3.46 0.12-5.2 0.01-1.13 0.01-2.27 0.01-3.44 0-1.27-0.01-2.53-0.01-3.84 0-1.35 0-2.7 0.01-4.05 0-3.74 0-7.49-0.01-11.2v-12.2-21.4c-0.01-10.6-0.01-21.2-0.01-31.8 0-17.8 0-35.6-0.01-53.5 0-17.6-0.01-35.3-0.01-53v-3.32-16.7c0-39.5-0.01-79-0.02-118-0.01-38.4-0.01-76.7-0.02-115v-3.58-35.6c0-24.2-0.01-48.4-0.01-72.5v-3.37c-0.01-74.3-0.02-149-0.04-223-4.17-0.9-7.99-1.13-12.3-1.13h-2.19-7.31-5.28c-4.84-0.01-9.69 0-14.5 0h-15.7c-10.2-0.01-20.5-0.01-30.7-0.01-8.31 0.01-16.6 0.01-24.9 0.01h-3.58c-2.4 0-4.8 0-7.19-0.01-22.5 0-45 0.01-67.5 0.01h-58c-22.4-0.01-44.9-0.01-67.3 0h-7.17-3.56c-8.31 0-16.6 0-24.9-0.01-10.1 0-20.2 0-30.3 0.01h-15.5c-4.72-0.01-9.44 0-14.2 0h-5.14-6.95-3.91c-2.75-0.2-2.75-0.2-3.85 1.13zm-1006 570c-1.06 0.8-1.06 0.8-2.14 1.61-10.5 8.37-18 21.1-19.9 34.4-0.56 11.1 0.56 22 1.87 33l0.6 5.25c0.42 3.73 0.85 7.46 1.29 11.2 0.69 5.9 1.36 11.8 2.04 17.7 0.23 2.03 0.46 4.05 0.69 6.07 0.12 1.01 0.23 2.02 0.35 3.06 0.35 3.08 0.71 6.17 1.06 9.25 2.3 20 4.5 40.1 6.69 60.2 0.46 4.15 0.91 8.3 1.36 12.4 0.09 0.79 0.18 1.59 0.27 2.41 0.67 6.15 1.34 12.3 2.02 18.4 0.44 4 0.87 8.01 1.31 12l1.38 12.6c0.17 1.6 0.35 3.19 0.52 4.78 0.24 2.2 0.48 4.39 0.72 6.59 0.14 1.25 0.27 2.49 0.41 3.78 0.33 2.47 0.73 4.77 1.42 7.16 3.17 0.93 6 1.13 9.3 1.13h3.28 3.62 3.84 10.6 11.6c6.75 0.01 13.5 0.01 20.2 0h30.1c17.9 0.01 35.8 0.01 53.8 0.01 15.7-0.01 31.4-0.01 47-0.01h3.15 12.6c39.6 0.01 79.2 0.01 119 0h106c39.5 0.01 79 0.01 119 0h12.6 3.14c15.7 0 31.4 0 47 0.01 17.8 0 35.6 0 53.4-0.01h30c6.66 0.01 13.3 0 20 0h11.4 12.2 3.62 3.27 2.83c2.5-0.03 2.5-0.03 5.35-1.13 3.16-25.4 6.03-50.9 8.84-76.4 1.08-9.83 2.17-19.6 3.25-29.5 0.18-1.64 0.18-1.64 0.37-3.32 1.61-14.6 3.26-29.2 4.93-43.8 0.32-2.82 0.65-5.64 0.97-8.45 0.1-0.91 0.21-1.82 0.31-2.75 0.21-1.8 0.41-3.6 0.62-5.39 0.59-5.15 1.18-10.3 1.78-15.4 0.37-3.17 0.73-6.34 1.09-9.51 0.17-1.45 0.34-2.89 0.51-4.33 2.16-18.3 2.82-36.2-8.86-51.8-12.8-15.8-31-25.8-51.3-28-5.73-0.55-11.4-0.6-17.2-0.59-1.15 0-2.29-0.01-3.47-0.01h-11.5c-2.77 0-5.54-0.01-8.32-0.01-6.82-0.01-13.6-0.01-20.4-0.01-8.18 0-16.4-0.01-24.5-0.01-19.7-0.02-39.5-0.03-59.2-0.03-9.35 0-18.7-0.01-28-0.01-32-0.01-64-0.02-96-0.03h-6.02-6.04-12.1-3.03c-32.5 0-64.9-0.02-97.4-0.04-34.3-0.03-68.7-0.04-103-0.04h-11.3-2.81c-14.9 0-29.8-0.02-44.8-0.03-15-0.01-30-0.02-45-0.01-8.91 0-17.8 0-26.7-0.02-5.96-0.01-11.9 0-17.9 0.01-3.39 0-6.78 0-10.2-0.01-24.6-0.07-46.8 1.18-66.6 17.4zm795 258c-0.07 1.85-0.09 3.71-0.06 5.56 0.01 1.01 0.01 2.03 0.02 3.07 0.02 0.78 0.03 1.56 0.04 2.37 0.52 0.19 1.03 0.38 1.56 0.58 31.6 11.8 56.2 30.5 74.7 58.9 0.57 0.84 1.15 1.68 1.74 2.55h1l1-15 208 1v33c-1.99 1.99-5.96 1.15-8.68 1.16-1.22 0.01-1.22 0.01-2.46 0.01-2.75 0.02-5.5 0.03-8.24 0.04-1.96 0-3.92 0.01-5.88 0.03-5.35 0.02-10.7 0.04-16 0.06-5.57 0.03-11.2 0.05-16.7 0.08-10.6 0.05-21.1 0.09-31.7 0.14-12 0.05-24 0.1-36.1 0.16-24.7 0.11-49.5 0.22-74.2 0.32 0.2 0.76 0.41 1.51 0.62 2.29 0.27 0.99 0.54 1.98 0.82 3 0.27 0.98 0.54 1.97 0.82 2.98 5.2 19.2 6.11 37.7 6.11 57.5 0 3.8 0.04 7.6 0.08 11.4 0.08 18.4-0.41 36.3-13.2 50.9-1.45 1.94-1.45 1.94-1.12 4.44 1.02 2.87 2.34 4.77 4.21 7.16 3.78 5.18 5.73 10.3 7.69 16.4 1.08 3.26 1.08 3.26 3 6 2.88 0.1 5.75 0.13 8.63 0.12 1.39 0 1.39 0 2.8 0.01 3.12 0 6.25-0.01 9.38-0.01h6.75c6.21 0.01 12.4 0 18.6 0 6-0.01 12-0.01 18-0.01 12.3 0.01 24.6 0 36.8 0 12.2-0.01 24.3-0.01 36.5-0.02h2.29 11.5c27.2 0 54.4-0.01 81.6-0.01 26.4-0.01 52.9-0.02 79.3-0.03h2.47 24.5c16.6 0 33.3 0 50-0.01h2.32c51.2-0.01 102-0.02 154-0.04 0.62-9.02 1.15-18 1.13-27v-3.01-9.79-7.1c0.01-6.37 0.01-12.8 0-19.1v-18c0.01-12.6 0-25.2 0-37.8-0.01-10.8-0.01-21.6 0-32.4 0-12.6 0.01-25.2 0-37.7v-20c0.01-6.23 0.01-12.5 0-18.7v-6.89-9.35-2.78c0.39-3.99 0.39-3.99-1.13-7.34-1.41-0.1-2.82-0.13-4.23-0.13h-2.79-3.11-3.28-11-7.93c-5.78-0.01-11.6-0.01-17.3 0h-25.8c-15.3-0.01-30.7-0.01-46-0.01-13.4 0.01-26.8 0.01-40.2 0.01h-2.69c-3.6 0-7.21 0-10.8-0.01-33.8 0-67.7 0-102 0.01h-90.3c-33.8-0.01-67.6-0.01-101 0h-10.8-2.68c-13.4 0-26.8 0-40.2-0.01-15.2 0-30.5 0-45.7 0.01h-25.6c-5.7-0.01-11.4 0-17.1 0h-9.75-10.5-3.11-2.79-2.42c-1.83-0.07-1.83-0.07-2.81 1.13zm-859 73.7c-18.2 20.2-26 46.1-26 72.8 0 1.19-0.01 2.38-0.01 3.61 0 2.51-0.01 5.03-0.01 7.54 0 3.83-0.02 7.67-0.04 11.5v7.35c-0.01 1.14-0.02 2.28-0.02 3.46 0.02 9.27 0.91 15.3 7.38 22.2 5.38 4.97 11.1 5.85 18.2 5.86h3.97 4.37 4.66c4.28 0.01 8.57 0.01 12.9 0 4.65 0 9.31 0.01 14 0.01 8.16 0.01 16.3 0.01 24.5 0.01 12.1-0.01 24.3 0 36.4 0 23 0.01 45.9 0.02 68.9 0.02h53.2c5.09 0 10.2 0 15.3 0.01h3.84c35.6 0 71.3 0.01 107 0.01h4.07 18.4 8.2 4.11c43.3-0.01 86.6 0 130 0.02 10.9 0 21.8 0 32.7 0.01h2.03c36.2 0.01 72.5 0.01 109 0.01h15.3 3.8c20.2 0 40.4 0 60.7 0.01 20.3 0.01 40.6 0.01 60.9 0.01 12.1-0.01 24.2-0.01 36.2 0 8.06 0.01 16.1 0.01 24.2 0 4.6 0 9.19 0 13.8 0.01 4.18 0 8.36 0 12.5-0.01 1.51 0 3.01 0 4.52 0.01 2.04 0 4.08 0 6.12-0.01h3.43c5.93-0.45 10.5-1.88 15-5.81 0.74-0.62 1.47-1.24 2.23-1.88 5.44-6.91 5.46-15.1 5.42-23.6 0-1.71 0-1.71 0.01-3.46 0-2.41-0.01-4.82-0.02-7.23-0.02-3.62 0-7.24 0.02-10.9 0.03-29.2-4.32-55.7-23.8-78.5-1.63-1.92-1.63-1.92-3.63-4.92h-2l-1-3c-26.8-25.9-59.5-29.3-95.2-29.3-3.85 0.01-7.71 0-11.6 0-6.74-0.01-13.5-0.01-20.2-0.01-10 0.01-20 0.01-30.1 0-17.9-0.01-35.8-0.01-53.7 0h-47-3.15-12.7c-39.6-0.01-79.2 0-119 0.01-35.2 0.01-70.3 0.01-106 0-39.5-0.01-79.1-0.02-119-0.01h-12.6-3.15c-15.7 0.01-31.3 0-47 0-17.8-0.01-35.6-0.01-53.4 0-9.97 0.01-19.9 0.01-29.9 0-6.67 0-13.3 0-20 0.01-3.79 0-7.58 0.01-11.4 0-37.8-0.07-69.2 5.59-96.1 34zm-22.8 180c-2.73 4.7-3.13 8.56-3.14 13.9 0 1.09 0 2.18-0.01 3.3v3.6c0 1.26 0 2.51-0.01 3.81-0.01 3.44-0.01 6.88-0.01 10.3v6.46c-0.01 7.51-0.02 15-0.02 22.5 0 7-0.01 14-0.02 21-0.02 6.02-0.02 12-0.02 18 0 3.59 0 7.18-0.01 10.8-0.01 4-0.01 8.01 0 12-0.01 1.18-0.02 2.37-0.02 3.58 0.03 9.39 0.91 15.3 7.45 22.3 5.27 5.05 10 5.85 17.1 5.86 1.31 0 2.62 0 3.97 0.01 1.47 0 2.93-0.01 4.39-0.01 1.55 0 3.11 0.01 4.66 0.01h12.9c4.67 0 9.33 0.01 14 0.01 9.26 0.01 18.5 0.01 27.8 0.01 11.1 0 22.2 0.01 33.3 0.01 26.8 0.02 53.6 0.03 80.4 0.03 12.7 0 25.4 0.01 38 0.01 42.7 0.01 85.4 0.02 128 0.03h6.12 12.3 14.4 4.11c44.1 0 88.1 0.02 132 0.04 47.2 0.03 94.5 0.04 142 0.04h15.3 3.81c20.3 0 40.5 0.02 60.8 0.03 20.4 0.01 40.7 0.02 61.1 0.01 12.1 0 24.2 0 36.3 0.02 8.08 0 16.2 0 24.2-0.01 4.61 0 9.22 0 13.8 0.01 4.19 0.01 8.38 0.01 12.6 0 1.51-0.01 3.02 0 4.52 0 8.5 0.05 15.9 0.08 23.2-4.89 0.79-0.8 0.79-0.8 1.6-1.62 0.54-0.51 1.09-1.03 1.65-1.57 4.95-7.4 4.97-15.5 4.91-24.2 0-1.26 0.01-2.52 0.01-3.82 0.01-3.43 0-6.86-0.01-10.3-0.01-3.6-0.01-7.2-0.01-10.8 0-6.04-0.01-12.1-0.03-18.1-0.02-6.98-0.02-14-0.01-20.9 0-6.72 0-13.4-0.01-20.2-0.01-2.85-0.01-5.71-0.01-8.57 0-3.98-0.01-7.97-0.03-12 0.01-1.18 0.01-2.36 0.01-3.57-0.05-8.37-1.1-14.1-6.28-20.9-5.16-4.76-9.51-6.25-16.5-6.26-0.64 0-1.28 0-1.94-0.01-2.15 0-4.31 0-6.46 0.01-1.56-0.01-3.13-0.01-4.69-0.02-4.32-0.01-8.64-0.01-13 0-4.69 0-9.38-0.01-14.1-0.02-9.31-0.01-18.6-0.02-27.9-0.02-11.2 0-22.3-0.01-33.4-0.03-27-0.03-53.9-0.04-80.8-0.05-12.8-0.01-25.5-0.01-38.2-0.02-42.9-0.03-85.8-0.05-129-0.05-2.05-0.01-4.1-0.01-6.15-0.01h-12.4-14.4-4.13c-44.3-0.01-88.6-0.04-133-0.08-47.5-0.05-95-0.08-142-0.09h-15.4-3.83c-20.4 0-40.7-0.02-61.1-0.05-20.5-0.03-40.9-0.04-61.4-0.02-12.2 0.01-24.3 0-36.5-0.03-8.12-0.02-16.2-0.02-24.4 0-4.63 0.01-9.26 0.01-13.9-0.01-4.21-0.02-8.42-0.02-12.6 0.01-1.52 0-3.03 0-4.55-0.02-10.8-0.11-18.3 1.5-25.2 10.3zm979 38.4v79h191v33l1 2c-96.5 0.49-96.5 0.49-195 1l-8 15c-11.4 14-22.5 19.6-39.9 23.1-0.88 0.18-1.76 0.36-2.67 0.55-2.15 0.45-4.3 0.89-6.45 1.33-0.02 10.3-0.04 20.6-0.05 30.8-0.01 4.77-0.02 9.55-0.03 14.3-0.01 4.61-0.01 9.21-0.02 13.8 0 1.76 0 3.52-0.01 5.28 0 2.46-0.01 4.92 0 7.37-0.01 0.74-0.01 1.47-0.02 2.23-0.29 3.36-0.29 3.36 1.13 6.14 3.19 0.1 6.36 0.13 9.55 0.12 1.54 0 1.54 0 3.1 0.01 3.47 0 6.93-0.01 10.4-0.01h7.48 16.3c8.1-0.01 16.2-0.01 24.3-0.01 13.6 0.01 27.2 0 40.8 0 13.5-0.01 27-0.01 40.4-0.02h2.54 12.8c30.2 0 60.3-0.01 90.4-0.01 29.3-0.01 58.6-0.02 87.9-0.03h2.73 27.2c18.5 0 36.9 0 55.4-0.01h2.57c56.7-0.01 113-0.02 170-0.04 0.73-2.79 1.12-5.21 1.12-8.1 0-0.81 0.01-1.63 0.01-2.46-0.01-0.89-0.01-1.78-0.01-2.69v-2.87c0-3.18 0-6.36-0.01-9.54v-6.83c0-6.19 0-12.4-0.01-18.6-0.01-6.46-0.01-12.9-0.01-19.4 0-10.8-0.01-21.7-0.02-32.6-0.01-11.2-0.01-22.4-0.02-33.5v-2.08-10.4c-0.01-28.7-0.03-57.4-0.05-86-3.95-1.32-7.72-1.14-11.8-1.13h-2.78-9.32-6.71c-6.18-0.01-12.4 0-18.5 0h-17.9c-13-0.01-25.9-0.01-38.9-0.01-11.3 0.01-22.7 0.01-34 0.01h-2.28c-3.04 0-6.09 0-9.14-0.01-28.6 0-57.2 0-85.8 0.01h-76.3c-28.6-0.01-57.1-0.01-85.7 0h-9.13-2.27c-11.3 0-22.7 0-34-0.01-12.9 0-25.8 0-38.6 0.01h-19.7c-6.01-0.01-12 0-18 0h-6.55-8.85-2.63c-3.78-0.36-3.78-0.36-6.95 1.13zm-910 155c-0.03 13.3-0.03 13.3-0.05 26.6-0.01 5.42-0.01 10.8-0.03 16.3-0.01 4.37-0.01 8.74-0.02 13.1 0 1.67 0 3.34-0.01 5.01 0 2.34-0.01 4.67 0 7-0.01 0.7-0.01 1.4-0.02 2.12-0.26 3.22-0.26 3.22 1.13 5.88 2.59 0.11 5.15 0.14 7.75 0.12 0.78 0 1.56 0 2.37-0.01 8.03-0.06 16-0.33 24.1-0.62 1.35-0.05 2.69-0.09 4.04-0.14 3.25-0.12 6.51-0.23 9.76-0.35 0.21-0.68 0.43-1.36 0.65-2.06 2.04-6.49 4.09-13 6.13-19.5 1.05-3.33 2.1-6.66 3.15-10 1.21-3.85 2.43-7.7 3.64-11.6 0.39-1.23 0.78-2.47 1.19-3.75 2.39-7.58 4.86-15.1 7.47-22.6 0.91-2.58 0.91-2.58 0.77-5.54h-72zm556 0v80c15.2 0.02 30.3 0.04 45.5 0.05 8.15 0.01 16.3 0.01 24.5 0.03 8.56 0.01 17.1 0.02 25.7 0.02h2.12c25.1 0 50.2-0.36 75.3-1.1-5.73-26.8-15.8-53-24-79h-149zm186 0c8.6 28.2 8.6 28.2 17.5 56.2 1.7 5.27 3.33 10.6 4.87 15.9 0.47 1.9 0.47 1.9 1.63 2.91 1.47 0.13 2.94 0.19 4.41 0.22 1.41 0.04 1.41 0.04 2.84 0.07 1.02 0.02 2.04 0.04 3.09 0.06 1.04 0.02 2.08 0.05 3.15 0.07 2.2 0.05 4.41 0.09 6.61 0.14 3.38 0.06 6.77 0.14 10.2 0.22 2.14 0.05 4.27 0.09 6.4 0.13 1.53 0.04 1.53 0.04 3.1 0.08 0.93 0.01 1.87 0.03 2.84 0.05 0.83 0.01 1.66 0.03 2.51 0.05 1.91 0.12 1.91 0.12 2.9-1.09 0.09-2.34 0.12-4.66 0.11-7v-2.22c0-2.43-0.01-4.85-0.01-7.28-0.01-1.68-0.01-3.36-0.01-5.04 0-4.43-0.01-8.87-0.02-13.3l-0.03-15.9c0-8.08-0.02-16.2-0.04-24.2h-72z" fill="#000100"/>
<path transform="translate(982,488)" d="m0 0h36c0.02 17.1 0.04 34.1 0.05 51.2 0.01 7.92 0.01 15.8 0.03 23.8 0.01 6.9 0.01 13.8 0.01 20.7 0.01 3.66 0.01 7.32 0.02 11v12.2c0.01 1.22 0.01 2.44 0.01 3.7v3.35 2.92c-0.12 2.17-0.12 2.17-1.12 3.17h-35v-132z" fill="#000100"/>
<path transform="translate(1219,488)" d="m0 0h35c0.02 17.1 0.04 34.1 0.05 51.2 0.01 7.92 0.01 15.8 0.03 23.8 0.01 6.9 0.01 13.8 0.01 20.7 0.01 3.66 0.01 7.32 0.02 11v12.2c0.01 1.22 0.01 2.44 0.01 3.7v3.35 2.92c-0.12 2.17-0.12 2.17-1.12 3.17-2.51 0.1-4.99 0.14-7.5 0.13-0.75 0-1.5 0-2.28 0.01-1.59 0-3.18-0.01-4.77-0.01-2.44 0-4.88 0-7.33 0.01-1.54 0-3.08-0.01-4.62-0.01-0.74 0-1.47 0.01-2.23 0.01-5.16-0.03-5.16-0.03-6.27-1.14-0.1-1.62-0.13-3.25-0.13-4.87 0-1.58 0-1.58-0.01-3.2 0.01-1.16 0.01-2.33 0.01-3.53v-3.7c-0.01-3.36-0.01-6.72 0-10.1 0-3.51 0-7.03-0.01-10.5 0-5.9 0-11.8 0.01-17.7 0.01-6.83 0-13.6 0-20.5-0.01-5.85-0.01-11.7 0-17.6 0-3.5 0-7-0.01-10.5 0-3.9 0.01-7.81 0.01-11.7 0-1.16 0-2.32-0.01-3.51 0.01-1.07 0.01-2.13 0.01-3.23v-2.8c0.13-2.58 0.13-2.58 1.13-7.58z" fill="#000100"/>
</svg>
