<?xml version="1.0" encoding="UTF-8"?>
<svg version="1.1" viewBox="0 0 1600 1600" width="1280" height="1280" xmlns="http://www.w3.org/2000/svg">
<path transform="translate(755 2.69)" d="m0 0c0.98 0 1.95 0 2.96 0.01 16.2 0.05 32 0.79 48 3.3 1.1 0.17 2.2 0.35 3.34 0.52 60.1 9.66 119 33.8 166 73.5 0.6 0.52 1.21 1.03 1.84 1.56 3.57 3.03 7.12 6.09 10.7 9.17 1.43 1.21 2.91 2.36 4.4 3.5 0.69 0.58 1.38 1.17 2.1 1.77v2c0.54 0.22 1.08 0.43 1.63 0.65 3.22 1.84 5.62 4.35 8.18 6.98 0.8 0.81 0.8 0.81 1.63 1.65 4.02 4.11 7.84 8.34 11.6 12.7 0.85 0.97 1.71 1.94 2.6 2.94 13.4 15.2 24.8 31.7 35.4 49.1 0.65 1.07 0.65 1.07 1.32 2.15 30.2 48.8 46.1 107 48.2 164 0.04 1.13 0.08 2.26 0.13 3.42 0.41 11.9 0.41 23.7 0.35 35.6 0 2.38-0.01 4.76-0.01 7.15-0.02 5.07-0.03 10.1-0.05 15.2-0.02 8.02-0.03 16-0.03 24.1v2.06 16.7 15 2.15c0 11.6-0.04 23.1-0.09 34.6-0.05 11.9-0.06 23.8-0.03 35.8 0.01 6.67 0 13.3-0.04 20-0.05 6.26-0.05 12.5-0.01 18.8 0 2.3-0.01 4.59-0.04 6.88-0.56 12-0.56 12 3.42 22.8 2.51 2.29 4.93 3.99 7.84 5.71 1.35 1.14 2.69 2.3 4 3.5 0.64 0.56 1.28 1.12 1.95 1.7 2.31 2.03 4.58 4.1 6.86 6.18 3.4 3.07 6.86 6.01 10.4 8.87 5.76 4.66 11.1 9.68 16.5 14.8 3.02 2.83 6.1 5.56 9.23 8.26 2.53 2.22 5.01 4.48 7.49 6.74 5.48 5 11 9.91 16.7 14.7 6.33 5.4 12.6 10.8 18.7 16.5 3.3 3.05 6.66 6.04 10.1 8.98 2.55 2.24 5.05 4.53 7.56 6.81 5.47 4.99 11 9.89 16.6 14.7 6.58 5.59 13 11.3 19.4 17.2 3.45 3.21 6.95 6.36 10.5 9.45 2.34 2.04 4.65 4.12 6.96 6.2 5.32 4.8 10.7 9.54 16.2 14.2 7.14 6.07 14.1 12.3 21 18.6 3.56 3.31 7.19 6.51 10.9 9.67 1.14 0.99 2.28 1.97 3.42 2.95 1.25 1.08 2.51 2.16 3.76 3.24 0.6 0.51 1.19 1.02 1.81 1.55 3.29 2.82 6.62 5.56 10 8.26l3 3c0.99 0.5 0.99 0.5 2 1-0.17-1.01-0.33-2.02-0.5-3.07-0.47-3.65-0.62-7.1-0.6-10.8v-1.97c0-2.17 0.02-4.33 0.03-6.5 0-1.56 0.01-3.12 0.01-4.68l0.06-12.7c0.01-2.64 0.03-5.29 0.04-7.93 0.04-8.29 0.08-16.6 0.13-24.9 0.05-9.55 0.1-19.1 0.13-28.6 0.02-7.39 0.06-14.8 0.11-22.2 0.02-4.4 0.04-8.81 0.05-13.2 0.01-4.15 0.04-8.3 0.07-12.4 0.01-1.52 0.02-3.03 0.02-4.55 0-14.7 2.77-26.7 12.7-38 10.2-9.89 21.8-13.8 35.7-13.8 13.1 0.23 22.6 5.34 32.1 14.3 4.46 4.75 7.43 10.1 9.94 16 0.34 0.81 0.67 1.61 1.02 2.44 1.37 4.99 1.45 9.85 1.6 15 0.03 1.11 0.07 2.22 0.11 3.36 0.35 11.1 0.39 22.1 0.37 33.2-0.01 2.17-0.01 4.34-0.01 6.5 0 4.61-0.01 9.22-0.02 13.8-0.01 7.29-0.02 14.6-0.02 21.9-0.01 15.4-0.03 30.9-0.05 46.4-0.02 16.7-0.05 33.5-0.06 50.2 0 7.25-0.01 14.5-0.02 21.7-0.01 4.5-0.02 8.99-0.02 13.5 0 2.08 0 4.16-0.01 6.25-0.01 2.84-0.01 5.68-0.01 8.53 0 0.82 0 1.64-0.01 2.48-0.35 9.15-0.35 9.15 3.17 17 0.9 0.63 1.79 1.27 2.71 1.92 0.99 0.75 1.98 1.49 3 2.26 0.53 0.4 1.06 0.79 1.6 1.2 2.93 2.3 5.62 4.87 8.33 7.42 1.11 1.03 2.21 2.06 3.32 3.09 0.51 0.48 1.03 0.96 1.56 1.46 2.45 2.26 4.96 4.44 7.48 6.62 2.34 2.04 4.65 4.12 6.96 6.2 3.62 3.27 7.27 6.5 11 9.7 2.31 2.03 4.58 4.1 6.86 6.18 3.36 3.03 6.78 5.93 10.3 8.75 5.61 4.52 10.8 9.42 16 14.4 3.93 3.74 7.93 7.37 12 10.9 2.24 1.95 4.43 3.95 6.62 5.95 3.54 3.2 7.16 6.25 10.9 9.25 3.73 3.01 7.13 6.12 10.4 9.56 2.34 2.26 4.84 4.27 7.38 6.31 10.8 8.82 20.3 19.1 22.5 33.5 1.29 15.4-1.78 28-11.7 40.1-7.43 8.17-18.3 13.5-29.4 14.2-13.6 0.37-23-2.56-34.9-9.37v416c19.8 0.5 19.8 0.5 40 1 13.9 3.1 24.7 9.27 32.8 21.2 6.69 11.3 9.6 23.2 6.3 36.2-2.59 7.3-6.23 13.5-11.1 19.5-0.52 0.65-1.05 1.3-1.58 1.96-6.96 7.76-17.8 12.5-28.1 13.4-1.34 0.04-2.68 0.07-4.02 0.09-0.75 0.02-1.49 0.04-2.26 0.06-2.5 0.06-5 0.11-7.5 0.15-1.83 0.04-3.65 0.08-5.47 0.11-23.2 0.46-46.5 0.41-69.7 0.4h-18.4c-12.7 0.01-25.4 0.01-38.1 0.01-12.8-0.01-25.7-0.01-38.5-0.01h-2.47c-3.33 0-6.66 0.01-9.98 0.01h-92.6-89.4-5.63-22.7-63.4-2.92-91.9-3c-16.1 0-32.2-0.01-48.3-0.01h-191c-16 0-32 0.01-48 0.01h-2.99-91.6-2.92-63.4-22.7-5.65c-29.7-0.01-59.4 0-89.1 0h-92.7c-3.36-0.01-6.72-0.01-10.1-0.01h-2.5-33.6c-38.4 0.01-76.9-0.01-115-0.11l-13-0.03c-17-0.04-34.1-0.09-51.1-0.18-6.93-0.04-13.9-0.07-20.8-0.09-6.39-0.01-12.8-0.04-19.2-0.09-2.32-0.02-4.65-0.02-6.98-0.02-17.9-0.01-32.3-1.15-46-13.9-8.97-9.47-14-21.5-13.9-34.6 0.65-13.5 7.76-24.8 17.4-34 8.72-7.26 18.6-10.5 29.9-10.5h2.22c2.43-0.01 4.87 0 7.31 0.02 1.78 0 3.56 0 5.35-0.01 4.76 0 9.52 0.02 14.3 0.03 4.47 0.01 8.94 0.01 13.4 0.01 13.1 0.01 26.1 0.04 39.2 0.07 43.8 0.06 43.8 0.06 88.5 0.12v-205c-4.95-1.48-4.95-1.48-10-3-2.96-1.18-5.85-2.38-8.75-3.69-0.78-0.34-1.55-0.69-2.34-1.05-23.5-10.8-43.4-26.4-61.9-44.3-0.87-0.82-1.74-1.65-2.63-2.5-5.62-5.46-10.5-11.4-15.4-17.5-0.94-1.13-1.88-2.27-2.82-3.4-7.76-9.43-14.6-19.3-21.2-29.6-0.38-0.58-0.75-1.17-1.14-1.77-49.7-77.6-73.1-171-74.6-472 8.61-39.1 20.2-78.1 34.8-115 0.45-1.17 0.91-2.35 1.37-3.55 8.9-23 17.9-45.9 28.5-68.1 1.67-3.55 3.31-7.11 4.95-10.7 5.53-12 11.1-23.9 17.1-35.6 0.4-0.78 0.81-1.57 1.22-2.37 2.97-5.75 5.97-11.5 8.99-17.2 1.25-2.39 2.51-4.79 3.76-7.18 8.73-16.6 17.7-33.1 27.3-49.3 2.47-4.2 4.88-8.43 7.3-12.7 7.22-12.6 14.8-25 22.6-37.3 1.87-2.94 3.72-5.88 5.58-8.83 7.83-12.4 15.9-24.6 24.1-36.8 0.48-0.71 0.95-1.42 1.44-2.15 29.3-43.4 29.3-43.4 47.9-47.7 12.5-1.84 25-0.52 35.8 6.43 11.9 8.95 20 21.7 28 34 1.62 2.44 3.24 4.88 4.87 7.31 0.86 1.28 1.71 2.56 2.56 3.84 1.68 2.52 3.36 5.03 5.04 7.54 22.9 34.2 44.4 69.4 64.2 105 2.61 4.72 5.3 9.38 8.13 14 1.15 1.94 2.17 3.91 3.16 5.94 1.67-3.35 1.12-7.14 1.1-10.8-0.01-1.38-0.01-1.38-0.01-2.78 0-2-0.01-4-0.02-5.99-0.01-3.19-0.02-6.38-0.02-9.56-0.01-7.94-0.04-15.9-0.06-23.8-0.02-6.67-0.04-13.4-0.05-20 0-3.09-0.02-6.19-0.03-9.28-0.05-19.8 0.31-39.6 2.84-59.3 0.13-1.03 0.13-1.03 0.26-2.08 1.63-12.9 3.9-25.7 6.99-38.4 0.33-1.36 0.33-1.36 0.66-2.75 5.28-21.5 12.8-42.3 22.3-62.2 0.32-0.67 0.63-1.33 0.96-2.02 8.4-17.5 18-34 29-50 0.68-0.99 1.37-1.99 2.08-3.01 8.28-11.7 17.5-22.7 27.2-33.1 1.85-1.97 3.67-3.95 5.46-5.96 4.98-5.55 10.1-10.8 15.7-15.7 1.7-1.49 3.37-3.01 5.02-4.55 7.06-6.63 14.6-12.4 22.4-18.1 2.03-1.48 4.04-2.97 6.06-4.46 25.6-18.7 54.3-33.3 84-44.1 1.31-0.47 1.31-0.47 2.66-0.96 18.8-6.73 37.9-11.4 57.5-14.8 1.17-0.2 2.33-0.39 3.52-0.6 18.1-2.92 36.1-4.03 54.4-3.96zm-187 174c-6.2 6.31-11.6 13-16.9 20.1-0.43 0.57-0.85 1.14-1.29 1.73-6.52 8.74-12.4 17.8-17.7 27.3-0.4 0.71-0.81 1.42-1.22 2.15-26.4 46.8-32 96.5-31.9 149 0 3.94 0 7.87-0.01 11.8-0.01 7.68-0.01 15.4-0.01 23 0 6.25 0 12.5-0.01 18.7 0 17.7-0.01 35.5-0.01 53.2v2.88 2.9c0 15.5-0.01 31-0.02 46.5-0.02 15.9-0.02 31.9-0.02 47.8 0 8.94 0 17.9-0.01 26.8-0.01 7.6-0.02 15.2-0.01 22.8v11.6c-0.01 3.55-0.01 7.11 0 10.7 0 1.87-0.01 3.75-0.02 5.62 0.05 10.9 1.34 21.6 4.19 32.1 0.36 1.4 0.73 2.79 1.1 4.19 0.28 1.08 0.28 1.08 0.58 2.17 3.6 13.6 6.68 27.3 9.21 41.2 0.14 0.79 0.29 1.58 0.44 2.4 1.47 8.18 2.83 16.4 3.93 24.6 0.09 0.66 0.17 1.32 0.27 2.01 0.4 3.06 0.78 6.12 1.13 9.19 1.27 10.4 4.39 19.4 9.86 28.3 0.42 0.71 0.84 1.42 1.28 2.15 7.98 13.1 16.9 25.7 26.3 37.8 3.33-0.59 5.21-1.72 7.75-3.93 0.61-0.53 1.22-1.05 1.86-1.59 1.62-1.38 1.62-1.38 1.39-3.48 0.81-0.33 0.81-0.33 1.64-0.67 3.11-1.75 5.54-4.08 8.11-6.52 1.07-1 2.15-2 3.22-3 0.78-0.73 0.78-0.73 1.58-1.47 1.83-1.69 3.69-3.33 5.57-4.96 4.68-4.06 9.28-8.22 13.9-12.4 6.98-6.3 14-12.6 21.2-18.7 6.58-5.59 13-11.3 19.4-17.2 3.45-3.22 6.96-6.37 10.5-9.46 2.28-1.99 4.52-4.03 6.76-6.07 3.4-3.07 6.86-6.01 10.4-8.88 5.07-4.09 9.8-8.47 14.5-12.9 4.41-4.14 8.95-7.98 13.7-11.7 0.82-0.69 1.65-1.38 2.5-2.1 1.53-1.16 1.53-1.16 3.1-2.34 4.48-4.55 3.78-10.2 3.73-16.2 0.01-1.22 0.02-2.43 0.02-3.69 0.01-2.56 0.01-5.13-0.02-7.7-0.02-3.91 0.02-7.82 0.08-11.7 0-2.5-0.01-5-0.02-7.5 0.02-1.16 0.04-2.33 0.05-3.53-0.11-6.68-0.87-10.5-5.71-15.2-0.74-0.67-1.47-1.34-2.23-2.04-1.77-1.79-3.54-3.6-5.31-5.4-1.51-1.51-3.02-3.02-4.54-4.52-1.63-1.62-3.26-3.25-4.89-4.87-3.46-3.45-6.92-6.89-10.4-10.3-4.02-4-8.04-8-12.1-12l-4.8-4.77c-0.99-0.98-1.98-1.97-2.97-2.95-1.28-1.28-1.28-1.28-2.59-2.58-1.84-1.92-3.49-3.82-5.14-5.89-0.77-0.88-1.53-1.77-2.31-2.68h-2l-2-4h-2c-0.27-0.59-0.54-1.19-0.82-1.81-1.17-2.17-2.31-3.54-4.07-5.25-0.58-0.57-1.16-1.15-1.76-1.73-0.63-0.61-1.25-1.22-1.9-1.84-1.33-1.32-2.67-2.63-4-3.94-2.09-2.06-4.19-4.1-6.29-6.15-12.3-12-22.9-22.7-23.6-40.9-0.16-14 3.66-25 13.4-35.4 10.5-9.87 22.9-12.6 36.9-12.3 18.8 1.01 31 15.7 43.3 28.3 2.11 2.16 4.23 4.32 6.35 6.47 1.31 1.34 2.62 2.67 3.92 4.01 1.52 1.55 3.09 3.04 4.67 4.52h2v-2.32c0.01-18.7 0.06-37.4 0.13-56.1 0.03-9.04 0.06-18.1 0.06-27.1 0.01-7.89 0.03-15.8 0.07-23.6 0.02-4.17 0.03-8.34 0.02-12.5 0-3.93 0.01-7.87 0.05-11.8 0-1.44 0-2.87-0.01-4.3-0.08-14.5 3.98-26.3 13.7-37.2 10.8-10 23-12.6 37.3-12.3 12.1 0.58 21.8 6.98 30 15.5 12.8 15.3 11 36.3 11 55.1 0.01 2.43 0.02 4.87 0.03 7.3 0.02 5.22 0.03 10.4 0.04 15.7 0.02 7.54 0.04 15.1 0.07 22.6 0.05 12.2 0.08 24.5 0.12 36.7 0.03 11.9 0.06 23.8 0.1 35.6 0 1.1 0 1.1 0.01 2.23 0.01 3.68 0.02 7.36 0.03 11 0.11 30.5 0.2 61 0.28 91.5 3.46-1.64 5.92-3.57 8.75-6.19 3.03-2.78 6.07-5.55 9.19-8.24 3.22-2.82 6.39-5.68 9.56-8.57 6.77-6.17 13.7-12.2 20.6-18.1 0.88-0.76 0.88-0.76 1.78-1.53 0.57-0.49 1.14-0.98 1.73-1.48 0.84-0.72 0.84-0.72 1.69-1.45 1.13-0.96 2.28-1.9 3.44-2.83 1.45-1.15 2.85-2.37 4.24-3.59v-2c0.54-0.22 1.08-0.44 1.64-0.67 3.11-1.75 5.54-4.08 8.11-6.52 1.08-1 2.16-2.01 3.24-3.01 0.52-0.49 1.04-0.97 1.58-1.47 4.06-3.77 8.27-7.35 12.5-10.9 7.03-5.95 13.8-12.1 20.5-18.4 4.35-4.08 8.86-7.88 13.5-11.6 2.87-2.4 5.56-4.92 8.26-7.5 13.8-13.2 26.6-23.6 46.5-23.3 13.3 0.55 24.3 6.6 34.2 15.4h1c0.04-21 0.08-42.1 0.1-63.1 0.01-9.76 0.03-19.5 0.05-29.3 0.02-8.53 0.03-17 0.04-25.6 0-4.5 0-9.01 0.02-13.5 0.14-44.9-2.74-87.8-21.2-130-0.38-0.85-0.75-1.7-1.14-2.57-10.6-23.9-24.4-44.9-41.5-64.7-1.57-1.83-3.09-3.71-4.56-5.63-0.6-0.71-1.2-1.41-1.81-2.14h-2l-2-4h-2l-1-3c-1.52-1.58-1.52-1.58-3.44-3.12-2.27-1.92-4.52-3.84-6.68-5.88-37.8-35.7-94.1-59.8-146-63-1.58-0.1-1.58-0.1-3.2-0.2-80.6-4.61-151 24.4-208 81.1zm-305 219c-20.2 31.3-39.3 63.2-56.8 96-2.8 5.25-5.68 10.4-8.6 15.6-4.13 7.37-7.96 14.9-11.7 22.5-0.9 1.83-1.83 3.66-2.76 5.48-41.9 82.2-77.1 173-77.2 428 0.29 1.77 0.29 1.77 0.6 3.57 11.8 69.7 34.2 146 80.4 200 0.43 0.53 0.87 1.06 1.31 1.6 17.9 21.8 40.6 41.4 69.7 44.6 20.3 1.56 39.2-6.94 55-19.2 0.91-0.71 1.83-1.42 2.77-2.15 8.67-6.94 16-14.4 23-23 1.45-1.8 2.92-3.57 4.43-5.31 17.3-20.2 29.4-45.2 39.8-69.5-0.6-0.39-1.2-0.79-1.82-1.19-0.8-0.53-1.6-1.05-2.42-1.6-1.18-0.77-1.18-0.77-2.38-1.57-11.3-7.8-17.1-16.8-21.4-29.6-1.38-14.7 0.29-27.2 9.5-39.2 11.2-12.7 11.2-12.7 17.5-15.8v-2c0.53-0.21 1.07-0.43 1.62-0.65 3.25-1.84 5.76-4.35 8.44-6.91 4.98-4.69 10.1-9.11 15.4-13.4 2.38-1.92 4.75-3.86 7.08-5.84 0.93-0.78 0.93-0.78 1.88-1.58 4.92-5.07 4.91-12.7 5.93-19.4 0.11-0.69 0.22-1.39 0.33-2.1 2.86-18.6 4.72-37.4 6.3-56.2 0.06-0.73 0.12-1.46 0.18-2.21 6.84-82.1-5.36-161-109-405-1.55-2.83-3.07-5.67-4.59-8.52-7.2-13.5-14.9-26.7-22.8-39.8-2.27-3.74-4.51-7.5-6.75-11.3-0.8-1.34-1.61-2.69-2.41-4.03l-3.48-5.85c-7.13-14.4-7.13-14.4-17.4-25.3zm698 219c-1.09 1.12-2.18 2.25-3.26 3.37-2.2 2.13-4.53 4.01-6.91 5.92-5.84 4.69-11.3 9.75-16.7 14.9-3.04 2.85-6.15 5.62-9.3 8.34-2.33 2.03-4.63 4.1-6.92 6.17-3.62 3.27-7.27 6.49-10.9 9.69-2.37 2.08-4.72 4.2-7.06 6.31-5.4 4.87-10.9 9.66-16.4 14.4-6.84 5.9-13.6 11.9-20.2 18-5.07 4.71-10.2 9.26-15.5 13.7-6.77 5.75-13.4 11.6-19.8 17.7-3.4 3.17-6.85 6.18-10.5 9.08-5.26 4.21-10.1 8.78-15 13.4-3.57 3.37-7.2 6.59-11 9.65-5.99 4.78-11.5 10-17.1 15.3-3.12 2.95-6.31 5.8-9.57 8.6-2.26 1.97-4.47 3.99-6.69 6.01-3.51 3.18-7.11 6.21-10.8 9.19-3.31 2.67-6.41 5.38-9.37 8.43-2.89 2.97-5.89 5.6-9.13 8.19-5.81 4.67-11.2 9.71-16.6 14.8-3.04 2.85-6.15 5.62-9.3 8.34-2.33 2.03-4.63 4.1-6.92 6.17-5.33 4.8-10.7 9.54-16.2 14.2-6.54 5.56-13 11.2-19.2 17.1-4.11 3.83-8.42 7.33-12.9 10.7-0.86 0.75-0.86 0.75-1.73 1.52v2c-0.54 0.22-1.07 0.43-1.62 0.65-3.25 1.84-5.77 4.35-8.44 6.92-4.16 3.91-8.36 7.67-12.8 11.2-3.67 2.95-6.99 6-10.2 9.38-3.21 3.11-6.76 5.82-10.2 8.62-2.18 1.82-4.16 3.65-6.12 5.69-3.67 3.81-7.77 7.01-11.9 10.3-2.18 1.82-4.16 3.65-6.12 5.69-4.45 4.61-9.52 8.49-14.5 12.5-2.4 1.95-4.71 3.92-7 6v2c-0.8 0.33-0.8 0.33-1.62 0.65-3.25 1.84-5.77 4.35-8.44 6.92-4.97 4.68-10 9.07-15.4 13.3-0.83 0.7-1.67 1.41-2.53 2.13-0.51 0.41-1.01 0.81-1.54 1.22-3.04 2.67-4.82 4.62-5.21 8.73-0.03 1.53-0.02 3.07 0.01 4.6-0.01 0.85-0.02 1.7-0.03 2.57-0.01 2.86 0.01 5.72 0.04 8.58 0 2.07-0.01 4.13-0.02 6.2-0.01 5.69 0.01 11.4 0.04 17.1 0.02 6.12 0.01 12.2 0 18.4 0 10.6 0.01 21.2 0.04 31.9 0.03 11.1 0.06 22.3 0.06 33.4v2.1 10.6c0.01 24.9 0.05 49.8 0.1 74.7 0.05 24.2 0.09 48.4 0.1 72.6v2.26c0.01 6 0.01 12 0.02 18 0.01 25.9 0.04 51.7 0.07 77.6 0.01 4.18 0.01 8.36 0.02 12.6 0.02 16.6 0.04 33.2 0.07 49.8 0.01 4.82 0.02 9.65 0.03 14.5 0 5.54 0.01 11.1 0.03 16.6 0 2.02 0.01 4.03 0.01 6.04 0 2.72 0.01 5.44 0.02 8.16 0 0.8 0 1.59-0.01 2.42-0.3 3.54-0.3 3.54 1.15 6.49 2.89 0.1 5.76 0.13 8.65 0.12h2.75c3.01 0 6.03-0.01 9.04-0.02h6.25c5.5-0.01 11-0.02 16.5-0.03 5.6-0.01 11.2-0.01 16.8-0.02 11-0.01 22-0.03 33-0.05v-2.51c0.08-49.1 0.17-98.2 0.28-147l0.03-17.7c0.01-1.77 0.01-1.77 0.01-3.56 0.04-19 0.07-38 0.1-57 0.04-19.5 0.07-39 0.12-58.5 0.03-12 0.05-24.1 0.06-36.1 0.02-8.25 0.03-16.5 0.06-24.8 0.01-4.76 0.02-9.52 0.02-14.3 0-4.37 0.01-8.74 0.03-13.1 0.01-1.57 0.01-3.15 0.01-4.72-0.03-18 1.22-35 14.4-48.7 12.8-11.4 26.5-12.3 42.9-12.2 2 0 4-0.01 6-0.02 5.41-0.01 10.8-0.01 16.2 0.01 5.68 0.01 11.4 0 17-0.01 9.53-0.01 19.1 0 28.6 0.02 11 0.02 22 0.02 33-0.01 9.47-0.01 18.9-0.02 28.4-0.01 5.65 0.01 11.3 0.01 16.9 0 5.31-0.01 10.6-0.01 15.9 0.02 1.94 0 3.88 0 5.82-0.01 15.7-0.06 27.9 1.71 40.1 12.5 13.9 13.8 14.1 30.6 14.2 49 0 1.5 0 2.99 0.01 4.49 0 1.62 0.01 3.25 0.01 4.87 0.01 4.43 0.02 8.86 0.03 13.3l0.03 14.4 0.06 24.8c0.02 12 0.05 24 0.08 35.9 0.05 19.4 0.09 38.9 0.13 58.3 0.04 18.9 0.08 37.7 0.13 56.6v3.53c0.02 5.84 0.03 11.7 0.04 17.5 0.12 48.4 0.23 96.8 0.33 145 44.2 1.19 88.4 1.15 133 1.14h22.5 3.28 6.62c20.5 0 41 0 61.6-0.01h52.3c20.4 0.01 40.9 0.01 61.3 0.01h6.61 3.28 22.3c51.9 0.01 104-0.27 156-1.14 0.74-65.7 1.22-131 1.34-197 0-1.06 0.01-2.13 0.01-3.23 0.04-21.4 0.07-42.8 0.09-64.2 0.01-4.59 0.01-9.19 0.02-13.8v-3.46c0.02-18.7 0.07-37.5 0.13-56.2 0.06-19.4 0.1-38.9 0.11-58.4 0-10.8 0.02-21.7 0.07-32.5 0.04-9.15 0.06-18.3 0.04-27.5 0-4.66 0-9.31 0.04-14 0.03-4.26 0.03-8.52 0-12.8 0-1.54 0.01-3.08 0.03-4.62 0.31-8.12 0.31-8.12-2.42-15.6-1.74-1.76-3.44-3.17-5.46-4.57-0.69-0.62-1.38-1.25-2.08-1.9-0.58-0.48-1.15-0.97-1.74-1.47-3.09-2.67-6.15-5.39-9.18-8.13-2.98-2.69-5.97-5.36-9-8-3.03-2.63-6.02-5.31-9-8-5.44-4.9-10.9-9.74-16.5-14.5-0.62-0.54-1.25-1.07-1.89-1.63-1.26-1.07-2.51-2.14-3.77-3.2-0.58-0.5-1.16-0.99-1.76-1.51-0.52-0.44-1.04-0.88-1.57-1.34-1.5-1.33-1.5-1.33-3.07-2.99-1.35-1.56-1.35-1.56-3.43-1.34v-2c-1.45-1.5-1.45-1.5-3.38-3.06-3.2-2.72-6.34-5.48-9.44-8.31-3.53-3.2-7.15-6.26-10.9-9.25-3.72-3.01-7.11-6.11-10.4-9.55-3.24-3.14-6.8-5.9-10.3-8.71-2.55-2.12-2.55-2.12-4.76-4.39-1.62-1.96-1.62-1.96-3.79-1.73v-2c-1.31-1.4-1.31-1.4-3.13-2.87-0.73-0.63-1.46-1.25-2.22-1.89-0.87-0.74-1.75-1.48-2.65-2.24-2.21-1.87-4.42-3.74-6.63-5.62-0.59-0.51-1.19-1.02-1.8-1.54-5.63-4.83-11-9.88-16.5-15-4.62-4.31-9.38-8.43-14.2-12.5-6.78-5.75-13.4-11.6-19.9-17.7-3.4-3.17-6.85-6.19-10.5-9.08-5.27-4.22-10.1-8.79-15-13.4-3.55-3.34-7.15-6.54-11-9.58-4.76-3.8-9.16-7.88-13.6-12.1-5.24-4.97-10.6-9.68-16.2-14.2-4.7-3.9-9.1-8.12-13.6-12.3-3.05-2.86-6.17-5.64-9.34-8.37-1.45-1.26-2.88-2.54-4.29-3.83-0.82-0.74-1.63-1.48-2.47-2.24-0.74-0.68-1.48-1.36-2.24-2.06-1.74-1.72-1.74-1.72-3.88-1.51v-2c-1.47-1.31-3.01-2.54-4.56-3.75-4.92-3.92-9.55-8.06-14.1-12.4-5.02-4.73-10.1-9.4-15.3-13.9-1.8-1.53-3.6-3.07-5.39-4.6-1.26-1.08-2.52-2.15-3.78-3.22-0.58-0.5-1.16-1-1.76-1.51-0.52-0.44-1.04-0.88-1.57-1.34-1.5-1.33-1.5-1.33-3.07-2.99-1.35-1.56-1.35-1.56-3.43-1.34v-2c-1.31-1.4-1.31-1.4-3.13-2.87-0.73-0.63-1.46-1.25-2.21-1.89-0.88-0.74-1.76-1.48-2.66-2.24-2.24-1.89-4.46-3.79-6.69-5.69-0.9-0.77-0.9-0.77-1.82-1.55-4.64-3.98-9.13-8.09-13.6-12.2-4.47-4.16-9.08-8.12-13.7-12.1-4.44-3.78-8.77-7.68-13-11.6-3.33-3.08-6.71-6.09-10.1-9.06-2.35-2.05-4.67-4.14-6.99-6.24-2.98-2.69-5.97-5.36-9-8-3.03-2.63-6.02-5.31-9-8-1.26-1.12-1.26-1.12-2.54-2.27-1.6-1.45-3.19-2.9-4.77-4.36-0.7-0.63-1.41-1.27-2.13-1.93-0.62-0.57-1.23-1.14-1.87-1.72-5.82-4.18-13.6 5.76-17.6 9.62zm-250 541v349h93c0.89-3.58 1.12-6.21 1.12-9.86 0-1.21 0-2.41 0.01-3.66-0.01-1.34-0.01-2.68-0.01-4.02v-4.27c0-3.91 0-7.82-0.01-11.7v-12.7c0-7.31 0-14.6-0.01-21.9 0-10.6-0.01-21.1-0.01-31.7 0-17.2-0.01-34.3-0.02-51.4-0.01-16.7-0.01-33.3-0.02-50v-3.12-15.4c-0.01-42.7-0.03-85.5-0.05-128-30.9-5.15-62.7-1-94-1zm-282 47c-1.32 1.48-1.32 1.48-2.62 3.45-0.52 0.74-1.04 1.48-1.57 2.24-0.56 0.81-1.11 1.61-1.69 2.44-5.93 8.4-12.3 16.2-19.1 23.9-0.59 0.7-1.18 1.4-1.78 2.12-9.62 11.4-20.5 21.8-32.5 30.6-1.7 1.26-3.38 2.54-5.07 3.82-14 10.5-29.2 18.1-45.4 24.5-3.1 1.26-6.17 2.59-9.25 3.91v205h120c0.18-39.9 0.18-39.9 0.35-79.9 0.03-5.46 0.05-10.9 0.07-16.4 0.01-0.68 0.01-1.37 0.01-2.07 0.05-9.53 0.09-19 0.13-28.6 0.08-16.4 0.15-32.8 0.22-49.3 0-1.28 0.01-2.55 0.02-3.87 0.17-40.6 0.27-81.3 0.2-122h-2z" fill="#000100"/>
<path transform="translate(1525 51.8)" d="m0 0c12.9 11.2 24 23.2 33.9 37.2 0.41 0.57 0.82 1.15 1.24 1.74 31.5 45 42.4 101 33 154-9.82 52.1-39.4 100-83.2 131-5.87 3.88-11.9 7.48-18 11-0.71 0.41-1.43 0.82-2.16 1.25-10.8 6.19-22 10.8-33.8 14.8-0.71 0.23-1.41 0.47-2.14 0.72-12 3.98-24.4 6.37-36.9 8.28-1.02 0.16-1.02 0.16-2.05 0.32-20.5 2.76-43.7 2.02-64-2.32-0.95-0.2-1.9-0.4-2.87-0.6-38.8-8.37-73.2-27.3-102-54.9-1.27-1.24-2.57-2.46-3.87-3.67-5.78-5.5-10.6-11.8-15.4-18.1-1.13-1.49-2.27-2.97-3.41-4.44-30.9-41-44.2-95.4-37.7-146 5.25-37.2 19.4-72.2 42.8-102 2.1-2.59 2.1-2.59 4.03-5.57h2c0.24-0.57 0.48-1.13 0.73-1.72 2.65-4.79 7.04-8.44 10.9-12.3l1.43-1.43c11.8-11.7 24.5-21.3 39-29.6 0.87-0.51 1.75-1.02 2.65-1.54 75.5-42.5 170-32.5 235 23.4zm-162 46.2c-0.72 0.19-1.43 0.38-2.17 0.58-27.4 7.69-52.2 25.8-66.8 50.4-15.8 28.6-20.1 59.1-12 90.8 4.99 16.5 13.7 31.3 25 44.2 1.07 1.22 1.07 1.22 2.17 2.47 20 21.3 49.4 33.2 78.3 34.6 27 0.64 55.8-8.78 76.1-26.9 1.47-1.41 2.93-2.82 4.38-4.25 0.84-0.81 1.69-1.61 2.56-2.44 0.8-0.85 1.61-1.69 2.44-2.56 0.66-0.68 1.33-1.37 2.01-2.07 19.9-21 29.7-50.6 28.9-79.3-1.48-31.1-15-59.2-37.9-80.4-15.2-13.1-32.5-22-52.1-26.3-0.93-0.23-1.85-0.45-2.8-0.69-15.5-3.24-33-2.45-48.2 1.69z" fill="#000100"/>
<path transform="translate(1045 1064)" d="m0 0c1-0 1.99-0.01 3.02-0.01 3.34-0.02 6.68-0.01 10-0.01 2.39-0.01 4.79-0.02 7.18-0.02 5.84-0.02 11.7-0.03 17.5-0.03 4.74 0 9.48 0 14.2-0.01 13.5-0.02 26.9-0.02 40.4-0.02h2.2 2.2c11.8 0 23.5-0.02 35.3-0.05 12.1-0.03 24.2-0.04 36.3-0.04 6.78 0 13.6-0.01 20.3-0.03 6.38-0.02 12.8-0.02 19.1 0 2.34 0 4.68 0 7.01-0.02 17.6-0.08 31.1 0.9 44.5 13.6 4.82 5.1 8.04 10.4 10.8 16.9 0.41 0.95 0.82 1.89 1.25 2.87 2.82 11.8 1.89 24.5 1.88 36.5v6.44c0.01 5.81 0.01 11.6 0 17.4v18.3c0.01 10.2 0 20.5 0 30.7-0.01 11.8-0.01 23.6 0 35.4 0 10.2 0.01 20.3 0 30.5v18.2c0.01 5.69 0.01 11.4 0 17.1v6.25c0.04 40 0.04 40-14.4 55.8-7.64 7.52-18.2 12.7-29 12.7-0.86 0.01-1.71 0.01-2.58 0.02-1.4-0.01-1.4-0.01-2.82-0.01-0.99 0.01-1.99 0.01-3.01 0.02-3.33 0.01-6.67 0.01-10 0.01-2.39 0.01-4.77 0.02-7.16 0.02-7.17 0.02-14.3 0.03-21.5 0.04-3.38 0.01-6.76 0.01-10.1 0.02-11.2 0.02-22.5 0.03-33.7 0.04h-8.75-2.19c-11.7 0.01-23.5 0.04-35.2 0.07-12 0.03-24.1 0.05-36.2 0.05-6.76 0.01-13.5 0.02-20.3 0.04-6.37 0.02-12.7 0.03-19.1 0.02-2.33 0-4.66 0-6.99 0.02-3.2 0.02-6.39 0.01-9.58 0-1.37 0.01-1.37 0.01-2.77 0.03-12.7-0.13-22.8-5.91-31.9-14.5-8.86-9.47-12.2-20.4-12.2-33.1 0-1-0.01-1.99-0.01-3.02-0.02-3.32-0.01-6.65-0.01-9.97-0.01-2.39-0.02-4.78-0.02-7.16-0.02-5.81-0.02-11.6-0.03-17.4 0-4.73 0-9.45-0.01-14.2-0.02-13.4-0.02-26.8-0.02-40.2v-2.18-2.19c0-11.7-0.02-23.4-0.05-35.1-0.03-12-0.04-24.1-0.04-36.1 0-6.75 0-13.5-0.03-20.3-0.02-6.35-0.02-12.7 0-19 0-2.33 0-4.66-0.02-6.99-0.01-3.18 0-6.37 0.01-9.55-0.01-0.92-0.02-1.83-0.03-2.77 0.13-12.1 5.53-23.2 13.6-32.1 5.06-4.76 10.5-8.07 16.9-10.7 0.83-0.35 1.67-0.69 2.53-1.05 4.54-1.25 8.73-1.24 13.4-1.22zm46.1 93.3c-0.1 1.7-0.13 3.41-0.13 5.12 0 1.11 0 2.22-0.01 3.37 0 1.23 0.01 2.46 0.01 3.72 0 1.29 0 2.57-0.01 3.9v10.6c0.01 3.69 0 7.39 0 11.1 0 6.21 0 12.4 0.01 18.6v21.6c-0.01 6.16-0.01 12.3-0.01 18.5 0 3.68 0.01 7.36 0 11 0 4.1 0 8.2 0.01 12.3 0 1.23-0.01 2.46-0.01 3.73 0.01 1.11 0.01 2.22 0.01 3.36v2.95c-0.12 2.16-0.12 2.16 1.13 3.18 1.71 0.09 3.42 0.12 5.13 0.12h3.37c1.23 0 2.46-0.01 3.73-0.01h3.9c3.54 0 7.08 0 10.6-0.01 3.7-0.01 7.4-0.01 11.1-0.01 7.01 0 14-0.01 21-0.02 7.97-0.01 16-0.02 23.9-0.02 16.4-0.01 32.8-0.03 49.2-0.05 0.17-11.9 0.34-23.7 0.5-35.6 0.01-0.87 0.02-1.75 0.03-2.66 0.43-31.6 0.6-63.2 0.47-94.8-3.19-0.95-6.05-1.13-9.37-1.13-1.09 0-2.18-0.01-3.31-0.01-1.19 0-2.38 0.01-3.6 0.01-1.89 0-1.89 0-3.81-0.01h-10.3c-3.61 0.01-7.21 0-10.8 0-6.04 0-12.1 0-18.1 0.01h-21c-6.01-0.01-12-0.01-18-0.01h-10.8c-3.99 0-7.99 0-12 0.01-1.2 0-2.39-0.01-3.63-0.01-1.08 0-2.16 0.01-3.27 0.01h-2.87c-2.11-0.11-2.11-0.11-3.12 1.13z" fill="#000100"/>
</svg>
