<?xml version="1.0" ?><svg data-name="Layer 1" id="Layer_1" viewBox="0 0 512 512" xmlns="http://www.w3.org/2000/svg"><path d="M482.1,103.48a23.87,23.87,0,0,0-40.45,10l-33.2,121a43,43,0,0,0-32.6,11.28L322.5,295.21a106.67,106.67,0,0,0-34,78V447.3a5.1,5.1,0,0,0,10.2,0V373.17a96.48,96.48,0,0,1,30.75-70.49l53.36-49.49a32.85,32.85,0,0,1,39.27-3.95,8.53,8.53,0,0,1,2.42,12.33l-56.54,76.78a5.1,5.1,0,1,0,8.22,6l56.54-76.78a18.72,18.72,0,0,0-5.33-27.08,42.92,42.92,0,0,0-8.89-4.09l33-120.29a13.69,13.69,0,0,1,13.17-10,13.66,13.66,0,0,1,13.63,14.58l-9.87,145.55a77.77,77.77,0,0,1-17.48,44.2L377.6,400a5.07,5.07,0,0,0-1.15,3.23v44a5.1,5.1,0,1,0,10.2,0V405.09l72.18-88.19a87.91,87.91,0,0,0,19.77-50l9.87-145.56A24,24,0,0,0,482.1,103.48Z"/><path d="M189.5,295.21l-53.35-49.49a43,43,0,0,0-32.6-11.28l-33.2-121a23.86,23.86,0,0,0-46.82,7.93L33.4,266.94a87.91,87.91,0,0,0,19.77,50l72.18,88.19V447.3a5.1,5.1,0,0,0,10.2,0v-44A5.07,5.07,0,0,0,134.4,400l-73.34-89.6a77.77,77.77,0,0,1-17.48-44.2L33.71,120.69a13.66,13.66,0,0,1,26.8-4.54l33,120.29a42.92,42.92,0,0,0-8.89,4.09,18.72,18.72,0,0,0-5.33,27.08l56.54,76.78a5.1,5.1,0,0,0,8.22-6L87.52,261.57a8.53,8.53,0,0,1,2.42-12.33,32.85,32.85,0,0,1,39.27,3.95l53.36,49.49a96.48,96.48,0,0,1,30.75,70.49V447.3a5.1,5.1,0,0,0,10.2,0V373.17A106.67,106.67,0,0,0,189.5,295.21Z"/><path d="M343,252.62V150.23h29.48a5.1,5.1,0,0,0,2.9-9.29l-37.22-25.7V72.45a5.1,5.1,0,0,0-5.1-5.1H297.8a5.1,5.1,0,0,0-5.1,5.1V83.84L258.9,60.51a5.09,5.09,0,0,0-5.8,0L136.6,140.94a5.09,5.09,0,0,0,2.89,9.29H169V252.62a5.1,5.1,0,0,0,5.1,5.1H337.93A5.1,5.1,0,0,0,343,252.62Zm-60.82-5.1H229.79V192.38a25.92,25.92,0,0,1,25.9-25.9h.62a25.92,25.92,0,0,1,25.9,25.9Zm50.62-102.39V247.52H292.41V192.38a36.14,36.14,0,0,0-36.1-36.1h-.62a36.14,36.14,0,0,0-36.1,36.1v55.14H179.17V145.13a5.1,5.1,0,0,0-5.1-5.1H155.86L256,70.9l38.9,26.85a5.1,5.1,0,0,0,8-4.19v-16H328v40.37a5.09,5.09,0,0,0,2.2,4.19L356.14,140H337.93A5.1,5.1,0,0,0,332.83,145.13Z"/></svg>