<?xml version="1.0" ?><svg viewBox="0 0 22.495 22.494" xmlns="http://www.w3.org/2000/svg"><g data-name="Layer 2" id="Layer_2"><g data-name="Layer 1" id="Layer_1-2"><path d="M4.857,9.36a.341.341,0,0,1-.341.341c-.443,0-.329-.573-.34-.856a.341.341,0,0,1,.34-.341C4.959,8.5,4.845,9.078,4.857,9.36ZM4.516,6.442c-.442,0-.329.574-.34.857a.341.341,0,0,0,.681,0C4.845,7.016,4.959,6.441,4.516,6.442Zm0,4.124c-.315,0-.366.317-.34.568a.341.341,0,0,0,.34.341c.315,0,.367-.319.341-.569A.34.34,0,0,0,4.516,10.566ZM4.516,0a1.95,1.95,0,0,1,0,3.9A1.95,1.95,0,0,1,4.516,0Zm0,3.218a1.268,1.268,0,0,0,0-2.536A1.268,1.268,0,0,0,4.516,3.218Zm7.441-.232-4.4,4.422a1.238,1.238,0,0,0-.362.877V21a1.521,1.521,0,0,1-2.677.946A1.52,1.52,0,0,1,1.841,21V14.1A1.264,1.264,0,0,1,0,12.983V6.847A2.18,2.18,0,0,1,2.178,4.669H6.067a1.552,1.552,0,0,0,1.1-.457l3.007-3.007a1.272,1.272,0,0,1,2.15.891A1.251,1.251,0,0,1,11.957,2.986ZM6.513,13.224H2.522V21a.828.828,0,0,0,1.655,0V14.422a.341.341,0,0,1,.681,0V21a.828.828,0,0,0,1.655,0ZM10.659,1.687,7.652,4.694c-.675.778-1.891.662-2.818.657a.339.339,0,0,1-.636,0H2.178a1.5,1.5,0,0,0-1.5,1.5v6.136a.578.578,0,0,0,1.156,0V7.166a.341.341,0,0,1,.681,0v5.376H6.513V8.285a1.915,1.915,0,0,1,.56-1.358l4.4-4.423A.577.577,0,0,0,10.659,1.687ZM22.5,22.154a.341.341,0,0,1-.341.34H10.8a.34.34,0,0,1-.341-.34V13.066a.341.341,0,0,1,.341-.341h1.931V3.977a.341.341,0,0,1,.341-.341h9.087a.341.341,0,0,1,.341.341ZM16.361,7.932A9.1,9.1,0,0,1,17.61,7.27a8.956,8.956,0,0,1,1.25.662V4.317h-2.5Zm5.452,5.475H18.405v4.2a.343.343,0,0,1-.51.3l-1.421-.812-1.421.812a.343.343,0,0,1-.51-.3v-4.2H11.135v8.406H21.813Zm-5.339,2.952a9.13,9.13,0,0,1,1.25.663V13.407h-2.5v3.615A9.124,9.124,0,0,1,16.474,16.359ZM21.813,4.317H19.542v4.2a.343.343,0,0,1-.51.3L17.61,8l-1.421.812a.343.343,0,0,1-.51-.3v-4.2H13.407v8.406h8.406Z" id="delivery"/></g></g></svg>