<?xml version="1.0" ?><svg id="Layer_1" style="enable-background:new 0 0 66 66;" version="1.1" viewBox="0 0 66 66" xml:space="preserve" xmlns="http://www.w3.org/2000/svg" xmlns:xlink="http://www.w3.org/1999/xlink"><g><path d="M50.96,30.8c-0.21-0.62-0.79-1.04-1.45-1.04h-5.78c-0.84,0-1.53,0.69-1.53,1.53v6.79c0,0.84,0.69,1.53,1.53,1.53h8.07   c0.5,0,0.95-0.23,1.24-0.64c0.29-0.41,0.37-0.91,0.21-1.38L50.96,30.8z M52.23,38.39c-0.1,0.14-0.26,0.22-0.43,0.22h-8.07   c-0.29,0-0.53-0.24-0.53-0.53v-6.79c0-0.29,0.24-0.53,0.53-0.53h5.78c0.23,0,0.43,0.15,0.5,0.36l2.29,6.79   C52.36,38.07,52.33,38.25,52.23,38.39z"/><path d="M17.73,56.34c0-1.5-1.22-2.72-2.72-2.72s-2.72,1.22-2.72,2.72c0,1.5,1.22,2.72,2.72,2.72S17.73,57.85,17.73,56.34z    M13.29,56.34c0-0.95,0.77-1.72,1.72-1.72s1.72,0.77,1.72,1.72c0,0.95-0.77,1.72-1.72,1.72S13.29,57.29,13.29,56.34z"/><path d="M48.29,53.62c-1.5,0-2.72,1.22-2.72,2.72c0,1.5,1.22,2.72,2.72,2.72c1.5,0,2.72-1.22,2.72-2.72   C51.01,54.84,49.79,53.62,48.29,53.62z M48.29,58.07c-0.95,0-1.72-0.77-1.72-1.72c0-0.95,0.77-1.72,1.72-1.72s1.72,0.77,1.72,1.72   C50.01,57.29,49.24,58.07,48.29,58.07z"/><path d="M64.5,53.53v-3.34c0-1-0.81-1.81-1.81-1.81h-1.79v-7.57c0-2.69-2.13-4.89-4.78-5.01l-2.66-7.89c-0.29-0.86-1.1-1.44-2-1.44   H41.02c-1.17,0-2.12,0.95-2.12,2.12v19.8h-2.17v-1.27c0-1.07-0.87-1.94-1.95-1.94H32.5L22.8,39.7l9.81-5.52c0,0,0,0,0,0   c0,0,0.01-0.01,0.01-0.01c0.07-0.04,0.12-0.1,0.16-0.16C32.79,34,32.8,34,32.8,33.99c0.01-0.02,0.01-0.04,0.02-0.05   c0.01-0.03,0.03-0.06,0.03-0.1c0.01-0.03,0.01-0.06,0.01-0.09c0-0.03,0-0.06-0.01-0.09c-0.01-0.03-0.02-0.07-0.03-0.1   c-0.01-0.02-0.01-0.04-0.02-0.05c-0.01-0.01-0.02-0.02-0.02-0.03c-0.02-0.03-0.04-0.05-0.07-0.08c-0.02-0.02-0.05-0.05-0.07-0.06   c-0.01-0.01-0.02-0.02-0.03-0.02l-9.81-5.52l9.69-5.46h6.14c1.59,0,2.89-1.29,2.89-2.89v-6.35V4.15c0-0.28-0.22-0.5-0.5-0.5H2.54   c-0.28,0-0.5,0.22-0.5,0.5v8.94v6.35c0,1.59,1.29,2.89,2.89,2.89h6.15l9.69,5.46l-9.81,5.52c-0.01,0.01-0.02,0.02-0.03,0.02   c-0.03,0.02-0.05,0.04-0.08,0.07c-0.02,0.02-0.05,0.05-0.07,0.08c-0.01,0.01-0.02,0.02-0.02,0.03c-0.01,0.02-0.01,0.04-0.02,0.05   c-0.01,0.03-0.03,0.06-0.03,0.1c-0.01,0.03-0.01,0.06-0.01,0.09c0,0.03,0,0.06,0.01,0.09c0.01,0.03,0.02,0.07,0.03,0.1   c0.01,0.02,0.01,0.04,0.02,0.05c0,0.01,0.01,0.01,0.02,0.02c0.04,0.06,0.09,0.12,0.16,0.16c0,0,0.01,0.01,0.01,0.01c0,0,0,0,0,0   l9.81,5.52l-9.69,5.46h-2.3c-1.07,0-1.95,0.87-1.95,1.94v1.27H3.31c-1,0-1.81,0.81-1.81,1.81v3.34c0,1,0.81,1.81,1.81,1.81h6.15   c-0.06,0.33-0.1,0.66-0.1,1.01c0,2.17,1.24,4.06,3.04,5H2c-0.28,0-0.5,0.22-0.5,0.5s0.22,0.5,0.5,0.5h62c0.28,0,0.5-0.22,0.5-0.5   s-0.22-0.5-0.5-0.5H50.89c1.8-0.94,3.04-2.83,3.04-5c0-0.34-0.04-0.68-0.1-1.01h8.86C63.69,55.33,64.5,54.52,64.5,53.53z    M39.91,28.58c0-0.62,0.5-1.12,1.12-1.12h10.43c0.48,0,0.9,0.31,1.06,0.76l2.77,8.23c0.07,0.2,0.26,0.34,0.47,0.34h0.13   c2.21,0,4.02,1.8,4.02,4.02v7.57h-20V28.58z M30.5,12.59V9.12h4.47v3.47H30.5z M25.02,12.59V9.12h4.47v3.47H25.02z M19.55,12.59   V9.12h4.47v3.47H19.55z M14.07,12.59V9.12h4.48v3.47H14.07z M8.6,12.59V9.12h4.47v3.47H8.6z M3.04,12.59V9.12H7.6v3.47H3.04z    M29.5,8.12h-4.47V4.65h4.47V8.12z M30.5,4.65h4.47v3.47H30.5V4.65z M24.02,8.12h-4.47V4.65h4.47V8.12z M18.55,8.12h-4.48V4.65   h4.48V8.12z M13.07,8.12H8.6V4.65h4.47V8.12z M35.97,9.12h4.56v3.47h-4.56V9.12z M40.53,8.12h-4.56V4.65h4.56V8.12z M7.6,4.65v3.47   H3.04V4.65H7.6z M3.04,19.44v-5.85h37.49v5.85c0,1.04-0.85,1.89-1.89,1.89H4.92C3.88,21.32,3.04,20.48,3.04,19.44z M13.11,22.32   h17.35l-8.68,4.89L13.11,22.32z M12.22,33.74l9.56-5.39l9.56,5.39l-9.56,5.39L12.22,33.74z M21.79,40.28l8.68,4.89H13.11   L21.79,40.28z M7.83,47.11c0-0.52,0.42-0.94,0.95-0.94h26.02c0.52,0,0.95,0.42,0.95,0.94v1.27H7.83V47.11z M10.36,56.34   c0-0.46,0.09-0.89,0.21-1.31c0,0,0,0,0,0c0.57-1.92,2.33-3.33,4.43-3.33c2.1,0,3.86,1.41,4.43,3.33c0,0,0,0,0,0   c0.12,0.42,0.21,0.85,0.21,1.31c0,2.56-2.08,4.65-4.64,4.65S10.36,58.91,10.36,56.34z M17.61,61.35c1.8-0.94,3.04-2.83,3.04-5   c0-0.34-0.04-0.68-0.1-1.01h22.18c-0.06,0.33-0.1,0.66-0.1,1.01c0,2.17,1.24,4.06,3.04,5H17.61z M48.29,60.99   c-2.56,0-4.64-2.08-4.64-4.65c0-0.46,0.09-0.89,0.21-1.31c0,0,0,0,0,0c0.57-1.92,2.33-3.33,4.43-3.33c2.1,0,3.86,1.41,4.43,3.33   c0,0,0,0,0,0c0.12,0.42,0.21,0.85,0.21,1.31C52.93,58.91,50.85,60.99,48.29,60.99z M48.29,50.7c-2.4,0-4.46,1.51-5.27,3.64H20.28   c-0.81-2.12-2.86-3.64-5.27-3.64s-4.46,1.51-5.27,3.64H3.31c-0.45,0-0.81-0.36-0.81-0.81v-3.34c0-0.45,0.36-0.81,0.81-0.81h4.02   c0,0,0,0,0,0s0,0,0,0h28.9c0,0,0,0,0,0s0,0,0,0h3.16c0,0,0,0,0.01,0h21c0,0,0,0,0.01,0h2.28c0.45,0,0.81,0.36,0.81,0.81v3.34   c0,0.45-0.36,0.81-0.81,0.81h-9.14C52.74,52.21,50.69,50.7,48.29,50.7z"/></g></svg>